<svg xmlns="http://www.w3.org/2000/svg" width="120" height="24" viewBox="0 0 120 24" fill="none"><path d="M0 22.9764C1.48472 21.4916 2.56644 19.8691 3.24517 18.1086L10.0218 0.864681H14.3169L20.9981 17.8859C21.4011 18.9464 21.8253 19.8691 22.2708 20.6538C22.7374 21.4386 23.3207 22.2128 24.0206 22.9764V23.1354H13.6806V22.9764C14.3169 22.0855 14.6351 21.1311 14.6351 20.113C14.6351 19.413 14.476 18.6707 14.1578 17.8859L13.3625 15.977H5.24954L4.61323 17.5041C4.33749 18.2041 4.19963 18.8828 4.19963 19.5403C4.19963 20.8129 4.65565 21.9583 5.56769 22.9764V23.1354H0V22.9764ZM9.29009 5.41428L5.56769 15.0225H13.0443L9.29009 5.41428Z" fill="#383838"></path><path d="M25.6226 22.9764C26.0892 22.3613 26.4179 21.6613 26.6088 20.8765C26.7997 20.0706 26.8952 19.1267 26.8952 18.045V5.95514C26.8952 4.87342 26.7997 3.94017 26.6088 3.15539C26.4179 2.3494 26.0892 1.63886 25.6226 1.02376V0.864681H36.1216C38.2851 0.864681 40.2576 1.23586 42.0393 1.97822C43.8422 2.72058 45.2951 3.91896 46.398 5.57336C47.5009 7.22775 48.0524 9.36999 48.0524 12.0001C48.0524 14.6301 47.5009 16.7724 46.398 18.4268C45.2951 20.0812 43.8422 21.2795 42.0393 22.0219C40.2576 22.7643 38.2851 23.1354 36.1216 23.1354H25.6226V22.9764ZM35.6444 22.181C37.6382 22.181 39.1123 21.1947 40.0667 19.2221C41.0424 17.2496 41.5302 14.8422 41.5302 12.0001C41.5302 9.15789 41.0424 6.75052 40.0667 4.77797C39.1123 2.80542 37.6382 1.81914 35.6444 1.81914C34.8596 1.81914 34.0642 1.97822 33.2582 2.29637V21.7037C34.0642 22.0219 34.8596 22.181 35.6444 22.181Z" fill="#383838"></path><path d="M50.7579 22.9764C51.2246 22.3613 51.5533 21.6613 51.7442 20.8765C51.9351 20.0706 52.0305 19.1267 52.0305 18.045V5.95514C52.0305 4.87342 51.9351 3.94017 51.7442 3.15539C51.5533 2.3494 51.2246 1.63886 50.7579 1.02376V0.864681H67.7792L68.7018 7.86406H68.3836C67.5352 5.84909 66.4323 4.34316 65.0748 3.34628C63.7174 2.32819 61.8085 1.81914 59.3481 1.81914H58.3936V11.5228H59.6662C61.0661 11.5228 62.1903 11.1941 63.0387 10.5366C63.8871 9.85782 64.5128 8.86094 64.9158 7.54591H65.2339V16.4542H64.9158C64.5128 15.1392 63.8871 14.1529 63.0387 13.4954C62.1903 12.8167 61.0661 12.4773 59.6662 12.4773H58.3936V22.181H59.9844C62.4448 22.181 64.3537 21.6825 65.7112 20.6857C67.0686 19.6676 68.1715 18.151 69.02 16.1361H69.3381L68.4155 23.1354H50.7579V22.9764Z" fill="#383838"></path><path d="M81.7518 23.6127C78.8672 23.6127 76.6083 22.9339 74.9751 21.5765C73.342 20.1978 72.5254 18.2783 72.5254 15.8179V5.95514C72.5254 4.87342 72.4299 3.94017 72.239 3.15539C72.0481 2.3494 71.7194 1.63886 71.2527 1.02376V0.864681H80.161V1.02376C79.6944 1.63886 79.3657 2.3494 79.1748 3.15539C78.9839 3.94017 78.8884 4.87342 78.8884 5.95514V15.8179C78.8884 17.7268 79.3445 19.1903 80.2565 20.2084C81.1685 21.2053 82.4624 21.7037 84.138 21.7037C85.8136 21.7037 87.1074 21.2053 88.0194 20.2084C88.9315 19.1903 89.3875 17.7268 89.3875 15.8179V6.27329C89.3875 5.29762 89.186 4.35377 88.783 3.44173C88.4012 2.52969 87.9134 1.7343 87.3195 1.05557V0.864681H92.569V1.05557C91.9752 1.7343 91.4767 2.52969 91.0737 3.44173C90.6919 4.35377 90.501 5.29762 90.501 6.27329V15.8179C90.501 18.3419 89.7799 20.2721 88.3376 21.6083C86.9165 22.9445 84.7213 23.6127 81.7518 23.6127Z" fill="#383838"></path><path d="M102.9 23.6127C101.394 23.6127 99.8991 23.4536 98.4144 23.1354C96.9296 22.7961 95.7313 22.4249 94.8192 22.0219V14.7044H95.1374C96.0282 17.1011 97.2478 19.0313 98.7962 20.4948C100.366 21.9371 102.137 22.6582 104.109 22.6582C105.361 22.6582 106.315 22.3401 106.973 21.7037C107.651 21.0674 107.991 20.2721 107.991 19.3176C107.991 18.5116 107.747 17.8435 107.259 17.3132C106.771 16.783 106.135 16.3482 105.35 16.0088C104.587 15.6694 103.579 15.3089 102.328 14.9271C100.567 14.418 99.1461 13.8984 98.0644 13.3681C96.9827 12.8379 96.1131 12.1167 95.4555 11.2047C94.798 10.2714 94.4693 9.06244 94.4693 7.57772C94.4693 6.24148 94.8404 5.03249 95.5828 3.95077C96.3252 2.84784 97.3645 1.97822 98.7007 1.34191C100.058 0.705604 101.617 0.387451 103.378 0.387451C104.735 0.387451 106.071 0.525318 107.386 0.801051C108.701 1.05557 109.751 1.34191 110.536 1.66007V8.50037H110.218C109.2 6.20966 108.054 4.44921 106.782 3.21902C105.53 1.96761 104.078 1.34191 102.423 1.34191C101.32 1.34191 100.429 1.62825 99.7506 2.20093C99.0931 2.75239 98.7643 3.47354 98.7643 4.36437C98.7643 5.12794 98.9977 5.77485 99.4643 6.30511C99.9309 6.81416 100.588 7.24897 101.437 7.60954C102.285 7.97011 103.441 8.37311 104.905 8.81852C106.474 9.28515 107.757 9.77298 108.754 10.282C109.751 10.7911 110.589 11.5228 111.268 12.4773C111.947 13.4318 112.286 14.6938 112.286 16.2633C112.286 17.6844 111.925 18.9464 111.204 20.0493C110.504 21.1523 109.444 22.0219 108.023 22.6582C106.623 23.2945 104.915 23.6127 102.9 23.6127Z" fill="#383838"></path><path d="M117.209 5.49393C116.647 5.49393 116.152 5.38705 115.725 5.17329C115.305 4.95162 114.981 4.64681 114.751 4.25888C114.529 3.87094 114.418 3.43155 114.418 2.94069C114.418 2.44984 114.529 2.01044 114.751 1.62251C114.981 1.23457 115.305 0.933726 115.725 0.719966C116.152 0.498289 116.647 0.387451 117.209 0.387451C117.771 0.387451 118.262 0.498289 118.682 0.719966C119.109 0.933726 119.434 1.23457 119.656 1.62251C119.885 2.01044 120 2.44984 120 2.94069C120 3.43155 119.885 3.87094 119.656 4.25888C119.434 4.64681 119.109 4.95162 118.682 5.17329C118.262 5.38705 117.771 5.49393 117.209 5.49393ZM117.209 5.19704C117.621 5.19704 117.981 5.10204 118.29 4.91203C118.607 4.71411 118.852 4.44493 119.026 4.10449C119.2 3.76406 119.287 3.37613 119.287 2.94069C119.287 2.50526 119.2 2.11732 119.026 1.77689C118.852 1.43646 118.607 1.17124 118.29 0.981228C117.981 0.783302 117.621 0.684339 117.209 0.684339C116.798 0.684339 116.433 0.783302 116.117 0.981228C115.808 1.17124 115.566 1.43646 115.392 1.77689C115.218 2.11732 115.131 2.50526 115.131 2.94069C115.131 3.37613 115.218 3.76406 115.392 4.10449C115.566 4.44493 115.808 4.71411 116.117 4.91203C116.433 5.10204 116.798 5.19704 117.209 5.19704ZM118.207 4.14012C118.033 4.14012 117.89 4.10054 117.779 4.02137C117.668 3.93428 117.573 3.79177 117.494 3.59385C117.415 3.388 117.34 3.24946 117.269 3.1782C117.197 3.09903 117.11 3.05945 117.007 3.05945H116.841V3.64135C116.841 3.79969 116.885 3.93824 116.972 4.05699V4.11637H116.057V4.05699C116.144 3.93824 116.188 3.79969 116.188 3.64135V1.97877C116.188 1.82043 116.144 1.68188 116.057 1.56313V1.50375H117.364C117.696 1.50375 117.957 1.56709 118.147 1.69376C118.337 1.81252 118.432 1.99461 118.432 2.24004C118.432 2.45379 118.361 2.62005 118.219 2.73881C118.076 2.84965 117.918 2.90902 117.744 2.91694V2.94069C117.87 2.97236 117.961 3.02778 118.017 3.10695C118.08 3.18612 118.151 3.32071 118.231 3.51072C118.286 3.65322 118.333 3.75219 118.373 3.80761C118.421 3.85511 118.476 3.87886 118.539 3.87886C118.587 3.87886 118.634 3.86302 118.682 3.83136L118.717 3.86698C118.614 4.04908 118.444 4.14012 118.207 4.14012ZM117.185 2.76256C117.352 2.76256 117.482 2.71506 117.577 2.62005C117.672 2.52505 117.72 2.39838 117.72 2.24004C117.72 2.07378 117.668 1.95106 117.565 1.87189C117.463 1.78481 117.332 1.74126 117.174 1.74126C117.063 1.74126 116.952 1.7571 116.841 1.78876V2.76256H117.185Z" fill="#383838"></path></svg>