<svg xmlns="http://www.w3.org/2000/svg" width="24" height="24" viewBox="0 0 24 24" fill="none"><path d="M2.22607 2.66089H3.96607C5.04607 2.66089 5.89607 3.59089 5.80607 4.66089L4.97607 14.6209C4.94367 15.0067 4.99176 15.3951 5.11731 15.7614C5.24286 16.1277 5.44312 16.464 5.70541 16.7488C5.96771 17.0337 6.28631 17.2609 6.64103 17.4162C6.99575 17.5715 7.37885 17.6514 7.76607 17.6509H18.4161C19.8561 17.6509 21.1161 16.4709 21.2261 15.0409L21.7661 7.54089C21.8861 5.88089 20.6261 4.53089 18.9561 4.53089H6.04607M9.22607 8.66089H21.2261M16.4761 22.6609C16.8076 22.6609 17.1255 22.5292 17.36 22.2948C17.5944 22.0604 17.7261 21.7424 17.7261 21.4109C17.7261 21.0794 17.5944 20.7614 17.36 20.527C17.1255 20.2926 16.8076 20.1609 16.4761 20.1609C16.1446 20.1609 15.8266 20.2926 15.5922 20.527C15.3578 20.7614 15.2261 21.0794 15.2261 21.4109C15.2261 21.7424 15.3578 22.0604 15.5922 22.2948C15.8266 22.5292 16.1446 22.6609 16.4761 22.6609ZM8.47607 22.6609C8.80759 22.6609 9.12554 22.5292 9.35996 22.2948C9.59438 22.0604 9.72607 21.7424 9.72607 21.4109C9.72607 21.0794 9.59438 20.7614 9.35996 20.527C9.12554 20.2926 8.80759 20.1609 8.47607 20.1609C8.14455 20.1609 7.82661 20.2926 7.59219 20.527C7.35777 20.7614 7.22607 21.0794 7.22607 21.4109C7.22607 21.7424 7.35777 22.0604 7.59219 22.2948C7.82661 22.5292 8.14455 22.6609 8.47607 22.6609Z" stroke="#E61F93" stroke-miterlimit="10" stroke-linecap="round" stroke-linejoin="round"></path></svg>