<svg xmlns="http://www.w3.org/2000/svg" width="177" height="177" viewBox="0 0 177 177" fill="none"><g clip-path="url(#clip0_366_1170)"><rect width="177" height="177" rx="45" fill="#E41F92"></rect><path d="M40.5051 132.427C46.4077 126.525 50.7081 120.074 53.4064 113.075L80.3474 44.5212H97.4226L123.984 112.19C125.586 116.406 127.273 120.074 129.043 123.194C130.899 126.314 133.217 129.392 136 132.427V133.06H94.893V132.427C97.4226 128.886 98.6875 125.091 98.6875 121.044C98.6875 118.261 98.0551 115.31 96.7902 112.19L93.6282 104.601H61.3749L58.8452 110.672C57.749 113.455 57.2009 116.153 57.2009 118.767C57.2009 123.826 59.0139 128.38 62.6397 132.427V133.06H40.5051V132.427ZM77.4383 62.6084L62.6397 100.806H92.3633L77.4383 62.6084Z" fill="white"></path></g><defs><clipPath id="clip0_366_1170"><rect width="177" height="177" rx="45" fill="white"></rect></clipPath></defs></svg>