<svg xmlns="http://www.w3.org/2000/svg" width="96" height="25" viewBox="0 0 96 25" fill="none"><rect x="0.140015" width="95.72" height="24.36" rx="12.18" fill="#40A421" fill-opacity="0.1"></rect><path d="M16.9876 16.68V7.73999H22.5076V8.63999H17.9476V11.748H22.1476V12.648H17.9476V16.68H16.9876ZM23.465 16.68V10.248H24.365V11.304L24.245 11.148C24.397 10.844 24.625 10.604 24.929 10.428C25.241 10.252 25.617 10.164 26.057 10.164H26.465V11.064H25.901C25.437 11.064 25.065 11.208 24.785 11.496C24.505 11.784 24.365 12.192 24.365 12.72V16.68H23.465ZM30.4477 16.824C29.8477 16.824 29.3037 16.68 28.8157 16.392C28.3357 16.096 27.9557 15.692 27.6757 15.18C27.3957 14.668 27.2557 14.088 27.2557 13.44C27.2557 12.792 27.3917 12.22 27.6637 11.724C27.9357 11.22 28.3037 10.824 28.7677 10.536C29.2397 10.248 29.7677 10.104 30.3517 10.104C30.8157 10.104 31.2277 10.192 31.5877 10.368C31.9557 10.536 32.2677 10.768 32.5237 11.064C32.7797 11.352 32.9757 11.68 33.1117 12.048C33.2477 12.408 33.3157 12.78 33.3157 13.164C33.3157 13.244 33.3117 13.336 33.3037 13.44C33.2957 13.536 33.2837 13.636 33.2677 13.74H27.8317V12.9H32.7517L32.3197 13.26C32.3917 12.82 32.3397 12.428 32.1637 12.084C31.9957 11.732 31.7517 11.456 31.4317 11.256C31.1117 11.048 30.7517 10.944 30.3517 10.944C29.9517 10.944 29.5797 11.048 29.2357 11.256C28.8997 11.464 28.6357 11.756 28.4437 12.132C28.2517 12.5 28.1757 12.94 28.2157 13.452C28.1757 13.964 28.2557 14.412 28.4557 14.796C28.6637 15.172 28.9437 15.464 29.2957 15.672C29.6557 15.88 30.0397 15.984 30.4477 15.984C30.9197 15.984 31.3157 15.872 31.6357 15.648C31.9557 15.424 32.2157 15.144 32.4157 14.808L33.1837 15.216C33.0557 15.504 32.8597 15.772 32.5957 16.02C32.3317 16.26 32.0157 16.456 31.6477 16.608C31.2877 16.752 30.8877 16.824 30.4477 16.824ZM37.3625 16.752C36.7865 16.752 36.3425 16.584 36.0305 16.248C35.7185 15.912 35.5625 15.432 35.5625 14.808V11.148H34.3745V10.248H34.6745C34.9465 10.248 35.1625 10.16 35.3225 9.98399C35.4825 9.79999 35.5625 9.57199 35.5625 9.29999V8.75999H36.4625V10.248H37.8785V11.148H36.4625V14.808C36.4625 15.024 36.4945 15.216 36.5585 15.384C36.6225 15.544 36.7305 15.672 36.8825 15.768C37.0425 15.864 37.2545 15.912 37.5185 15.912C37.5825 15.912 37.6585 15.908 37.7465 15.9C37.8345 15.892 37.9105 15.884 37.9745 15.876V16.68C37.8785 16.704 37.7705 16.72 37.6505 16.728C37.5305 16.744 37.4345 16.752 37.3625 16.752ZM42.2485 16.824C41.6485 16.824 41.1045 16.68 40.6165 16.392C40.1365 16.096 39.7565 15.692 39.4765 15.18C39.1965 14.668 39.0565 14.088 39.0565 13.44C39.0565 12.792 39.1925 12.22 39.4645 11.724C39.7365 11.22 40.1045 10.824 40.5685 10.536C41.0405 10.248 41.5685 10.104 42.1525 10.104C42.6165 10.104 43.0285 10.192 43.3885 10.368C43.7565 10.536 44.0685 10.768 44.3245 11.064C44.5805 11.352 44.7765 11.68 44.9125 12.048C45.0485 12.408 45.1165 12.78 45.1165 13.164C45.1165 13.244 45.1125 13.336 45.1045 13.44C45.0965 13.536 45.0845 13.636 45.0685 13.74H39.6325V12.9H44.5525L44.1205 13.26C44.1925 12.82 44.1405 12.428 43.9645 12.084C43.7965 11.732 43.5525 11.456 43.2325 11.256C42.9125 11.048 42.5525 10.944 42.1525 10.944C41.7525 10.944 41.3805 11.048 41.0365 11.256C40.7005 11.464 40.4365 11.756 40.2445 12.132C40.0525 12.5 39.9765 12.94 40.0165 13.452C39.9765 13.964 40.0565 14.412 40.2565 14.796C40.4645 15.172 40.7445 15.464 41.0965 15.672C41.4565 15.88 41.8405 15.984 42.2485 15.984C42.7205 15.984 43.1165 15.872 43.4365 15.648C43.7565 15.424 44.0165 15.144 44.2165 14.808L44.9845 15.216C44.8565 15.504 44.6605 15.772 44.3965 16.02C44.1325 16.26 43.8165 16.456 43.4485 16.608C43.0885 16.752 42.6885 16.824 42.2485 16.824ZM51.7904 19.32C51.3504 19.32 50.9424 19.252 50.5664 19.116C50.1984 18.98 49.8784 18.792 49.6064 18.552C49.3424 18.32 49.1384 18.048 48.9944 17.736L49.8224 17.292C49.9504 17.596 50.1784 17.86 50.5064 18.084C50.8344 18.308 51.2544 18.42 51.7664 18.42C52.1584 18.42 52.5184 18.344 52.8464 18.192C53.1744 18.04 53.4384 17.816 53.6384 17.52C53.8384 17.224 53.9384 16.86 53.9384 16.428V15L54.0824 15.132C53.8584 15.596 53.5264 15.956 53.0864 16.212C52.6464 16.46 52.1664 16.584 51.6464 16.584C51.0464 16.584 50.5064 16.44 50.0264 16.152C49.5464 15.864 49.1664 15.476 48.8864 14.988C48.6144 14.492 48.4784 13.944 48.4784 13.344C48.4784 12.736 48.6144 12.188 48.8864 11.7C49.1664 11.212 49.5424 10.824 50.0144 10.536C50.4944 10.248 51.0384 10.104 51.6464 10.104C52.1664 10.104 52.6384 10.224 53.0624 10.464C53.4944 10.704 53.8344 11.028 54.0824 11.436L53.9384 11.688V10.248H54.8384V16.428C54.8384 16.98 54.7064 17.472 54.4424 17.904C54.1864 18.344 53.8264 18.688 53.3624 18.936C52.9064 19.192 52.3824 19.32 51.7904 19.32ZM51.6944 15.684C52.1104 15.684 52.4864 15.58 52.8224 15.372C53.1584 15.156 53.4264 14.872 53.6264 14.52C53.8344 14.16 53.9384 13.768 53.9384 13.344C53.9384 12.92 53.8344 12.532 53.6264 12.18C53.4264 11.82 53.1584 11.536 52.8224 11.328C52.4864 11.112 52.1104 11.004 51.6944 11.004C51.2704 11.004 50.8864 11.112 50.5424 11.328C50.1984 11.536 49.9264 11.816 49.7264 12.168C49.5344 12.52 49.4384 12.912 49.4384 13.344C49.4384 13.768 49.5344 14.16 49.7264 14.52C49.9264 14.872 50.1944 15.156 50.5304 15.372C50.8744 15.58 51.2624 15.684 51.6944 15.684ZM56.6877 16.68V10.248H57.5877V11.304L57.4677 11.148C57.6197 10.844 57.8477 10.604 58.1517 10.428C58.4637 10.252 58.8397 10.164 59.2797 10.164H59.6877V11.064H59.1237C58.6597 11.064 58.2877 11.208 58.0077 11.496C57.7277 11.784 57.5877 12.192 57.5877 12.72V16.68H56.6877ZM62.6024 16.824C62.1944 16.824 61.8304 16.748 61.5104 16.596C61.1904 16.436 60.9384 16.22 60.7544 15.948C60.5704 15.676 60.4784 15.364 60.4784 15.012C60.4784 14.676 60.5504 14.372 60.6944 14.1C60.8384 13.82 61.0624 13.584 61.3664 13.392C61.6704 13.2 62.0584 13.064 62.5304 12.984L65.0504 12.564V13.38L62.7464 13.764C62.2824 13.844 61.9464 13.992 61.7384 14.208C61.5384 14.424 61.4384 14.68 61.4384 14.976C61.4384 15.264 61.5504 15.508 61.7744 15.708C62.0064 15.908 62.3024 16.008 62.6624 16.008C63.1024 16.008 63.4864 15.916 63.8144 15.732C64.1424 15.54 64.3984 15.284 64.5824 14.964C64.7664 14.644 64.8584 14.288 64.8584 13.896V12.264C64.8584 11.88 64.7184 11.568 64.4384 11.328C64.1584 11.088 63.7944 10.968 63.3464 10.968C62.9544 10.968 62.6104 11.068 62.3144 11.268C62.0184 11.46 61.7984 11.712 61.6544 12.024L60.8384 11.58C60.9584 11.308 61.1464 11.06 61.4024 10.836C61.6664 10.612 61.9664 10.436 62.3024 10.308C62.6384 10.172 62.9864 10.104 63.3464 10.104C63.8184 10.104 64.2344 10.196 64.5944 10.38C64.9624 10.564 65.2464 10.82 65.4464 11.148C65.6544 11.468 65.7584 11.84 65.7584 12.264V16.68H64.8584V15.396L64.9904 15.528C64.8784 15.768 64.7024 15.988 64.4624 16.188C64.2304 16.38 63.9544 16.536 63.6344 16.656C63.3224 16.768 62.9784 16.824 62.6024 16.824ZM62.8904 8.99999L63.9344 7.19999H65.1704L63.8024 8.99999H62.8904ZM69.9524 16.752C69.3764 16.752 68.9324 16.584 68.6204 16.248C68.3084 15.912 68.1524 15.432 68.1524 14.808V11.148H66.9644V10.248H67.2644C67.5364 10.248 67.7524 10.16 67.9124 9.98399C68.0724 9.79999 68.1524 9.57199 68.1524 9.29999V8.75999H69.0524V10.248H70.4684V11.148H69.0524V14.808C69.0524 15.024 69.0844 15.216 69.1484 15.384C69.2124 15.544 69.3204 15.672 69.4724 15.768C69.6324 15.864 69.8444 15.912 70.1084 15.912C70.1724 15.912 70.2484 15.908 70.3364 15.9C70.4244 15.892 70.5004 15.884 70.5644 15.876V16.68C70.4684 16.704 70.3604 16.72 70.2404 16.728C70.1204 16.744 70.0244 16.752 69.9524 16.752ZM72.1447 16.68V10.248H73.0447V16.68H72.1447ZM72.1447 9.05999V7.73999H73.0447V9.05999H72.1447ZM77.1189 16.824C76.5029 16.824 75.9629 16.668 75.4989 16.356C75.0349 16.044 74.6989 15.62 74.4909 15.084L75.2469 14.724C75.4309 15.116 75.6869 15.428 76.0149 15.66C76.3509 15.892 76.7189 16.008 77.1189 16.008C77.5029 16.008 77.8269 15.916 78.0909 15.732C78.3549 15.54 78.4869 15.292 78.4869 14.988C78.4869 14.764 78.4229 14.588 78.2949 14.46C78.1669 14.324 78.0189 14.22 77.8509 14.148C77.6829 14.076 77.5349 14.024 77.4069 13.992L76.4829 13.728C75.8909 13.56 75.4629 13.324 75.1989 13.02C74.9349 12.716 74.8029 12.364 74.8029 11.964C74.8029 11.588 74.8989 11.26 75.0909 10.98C75.2829 10.7 75.5429 10.484 75.8709 10.332C76.1989 10.18 76.5629 10.104 76.9629 10.104C77.5069 10.104 77.9989 10.248 78.4389 10.536C78.8869 10.816 79.2029 11.208 79.3869 11.712L78.6189 12.072C78.4589 11.712 78.2269 11.432 77.9229 11.232C77.6269 11.024 77.2949 10.92 76.9269 10.92C76.5669 10.92 76.2789 11.012 76.0629 11.196C75.8469 11.38 75.7389 11.612 75.7389 11.892C75.7389 12.108 75.7949 12.28 75.9069 12.408C76.0189 12.536 76.1469 12.632 76.2909 12.696C76.4429 12.76 76.5749 12.808 76.6869 12.84L77.7549 13.152C78.2749 13.304 78.6789 13.54 78.9669 13.86C79.2629 14.18 79.4109 14.556 79.4109 14.988C79.4109 15.34 79.3109 15.656 79.1109 15.936C78.9189 16.216 78.6509 16.436 78.3069 16.596C77.9629 16.748 77.5669 16.824 77.1189 16.824Z" fill="#40A421"></path></svg>