<svg xmlns="http://www.w3.org/2000/svg" width="60" height="60" viewBox="0 0 60 60" fill="none"><rect width="60" height="60" rx="30" fill="#E61F93" fill-opacity="0.05"></rect><path d="M22.4817 40.5607L27.6379 44.5526C28.3032 45.2179 29.8001 45.5506 30.7981 45.5506H37.1186C39.1145 45.5506 41.2768 44.0536 41.7758 42.0577L45.7676 29.9157C46.5993 27.5871 45.1023 25.5912 42.6074 25.5912H35.9543C34.9563 25.5912 34.1247 24.7596 34.291 23.5953L35.1226 18.2728C35.4553 16.7758 34.4573 15.1125 32.9604 14.6135C31.6297 14.1145 29.9665 14.7799 29.3011 15.7778L22.4817 25.9239" stroke="#E61F93" stroke-width="1.33063" stroke-miterlimit="10"></path><path d="M13.9985 40.5605V24.2603C13.9985 21.9317 14.9965 21.1001 17.3251 21.1001H18.9884C21.317 21.1001 22.3149 21.9317 22.3149 24.2603V40.5605C22.3149 42.8891 21.317 43.7207 18.9884 43.7207H17.3251C14.9965 43.7207 13.9985 42.8891 13.9985 40.5605Z" stroke="#E61F93" stroke-width="1.33063" stroke-linecap="round" stroke-linejoin="round"></path></svg>