<svg xmlns="http://www.w3.org/2000/svg" width="16" height="10" viewBox="0 0 16 10" fill="none"><path d="M8.83714 8.92285L15.0507 2.69832C15.1538 2.59609 15.2356 2.47445 15.2914 2.34044C15.3472 2.20643 15.376 2.06269 15.376 1.91751C15.376 1.77233 15.3472 1.62859 15.2914 1.49457C15.2356 1.36056 15.1538 1.23893 15.0507 1.13669C14.8446 0.931863 14.5659 0.816894 14.2754 0.816894C13.9848 0.816894 13.7061 0.931863 13.5 1.13669L8.00134 6.5804L2.55762 1.13669C2.35157 0.931862 2.07284 0.816894 1.78231 0.816894C1.49177 0.816894 1.21304 0.931862 1.00699 1.13669C0.903077 1.23854 0.820409 1.36 0.763776 1.49403C0.707143 1.62807 0.677672 1.772 0.677068 1.91751C0.677672 2.06301 0.707143 2.20695 0.763776 2.34098C0.820409 2.47501 0.903077 2.59647 1.00699 2.69832L7.22052 8.92285C7.3235 9.03448 7.44849 9.12357 7.58761 9.1845C7.72673 9.24544 7.87696 9.27689 8.02883 9.27689C8.18071 9.27689 8.33094 9.24544 8.47005 9.1845C8.60917 9.12357 8.73416 9.03448 8.83714 8.92285Z" fill="#E61F93"></path></svg>