<svg xmlns="http://www.w3.org/2000/svg" width="255" height="250" viewBox="0 0 255 250" fill="none"><g clip-path="url(#clip0_2165_1390)"><path d="M15.5282 95.5982C15.2382 95.2673 9.43249 98.8782 7.55052 94.3926C4.63287 87.4367 25.4115 76.332 20.4639 67.9459C18.3571 64.3704 -5.1735 59.4061 1.31279 52.1369C5.22469 47.7518 24.6895 53.3957 26.4827 43.544C27.323 38.9342 12.4803 21.2991 18.144 17.5405C23.1212 14.2427 37.3425 30.2822 41.7574 30.4417C49.1728 30.7077 49.161 7.20998 53.8482 5.86843C60.3463 4.00682 60.7665 21.2164 62.5775 21.1218C63.1989 21.0923 70.9457 15.3479 72.9283 14.3196C108.053 -4.00108 141.774 -4.33203 178.088 10.9805C180.55 12.0147 191.392 18.5747 192.191 18.5747C192.836 18.5747 200.825 14.0773 203.95 13.3681C206.749 12.7298 214.449 11.3173 216.751 12.5584C222.876 15.8561 206.4 26.1984 207.548 29.9749C207.803 30.8141 216.716 38.8338 218.231 40.6245C226.06 49.8675 232.618 59.6779 237.968 70.558C238.986 72.6324 242.744 83.7135 243.359 84.1153C245.644 85.6105 253.692 76.6866 254.686 83.4652C255.462 88.7546 246.957 94.4931 246.59 96.4552C246.3 97.9976 249.123 110.261 249.289 113.629C252.082 171.404 221.9 227.182 164.535 244.675C77.8344 271.11 2.6207 194.89 12.6697 108.984C12.9419 106.638 15.978 96.1124 15.5341 95.5982H15.5282ZM69.9751 22.9007C68.1583 24.0059 62.6426 26.8012 64.637 29.112C68.1228 33.1544 76.9467 24.4905 80.036 22.3097C105.673 5.98072 83.6756 37.6754 84.297 44.3359C84.9125 50.9195 93.5353 50.0567 98.3822 50.0862C99.3351 51.1441 101.235 50.6358 102.525 50.6772C104.419 50.7363 107.893 50.2694 109.076 52.1133C115.551 62.1424 86.7412 61.4214 89.0257 73.3061C89.2269 74.3463 91.2035 75.8238 91.8723 76.6807C92.038 76.8994 92.2984 77.0589 92.4641 77.2717L101.039 87.7381C110.941 82.9097 122.268 80.6699 133.299 81.4086C133.424 81.4145 134.666 81.8755 135.667 81.9996C136.436 82.0941 137.264 81.9109 138.034 81.9996C138.129 82.0114 138.566 82.5433 139.809 82.5906C140.206 82.6024 140.596 82.5788 140.993 82.5906C201.962 97.8263 214.603 174.288 164.074 210.244C145.674 222.123 123.357 224.168 103.117 215.563C92.8606 210.587 83.6579 203.099 76.4851 194.287C62.3111 174.891 60.8375 156.541 64.057 133.416C64.2345 133.238 64.56 133.049 64.6488 132.825C64.8559 132.322 65.0867 131.584 65.2406 131.052C65.9153 128.694 69.7858 119.592 69.7562 118.942C69.7088 117.89 59.5651 101.467 58.5945 101.053C57.8133 100.716 53.7417 100.722 52.9427 101.053C50.7352 101.957 40.775 119.078 38.7747 119.722C32.4008 121.767 33.6673 114.835 33.8685 111.555C33.9277 110.58 33.8389 109.581 33.8685 108.6C34.6142 108.251 34.4307 107.495 34.4603 106.827C34.4781 106.437 34.4248 106.035 34.4603 105.645C34.8924 101.041 37.9284 91.3195 30.6254 90.9353C30.0632 90.9058 22.4465 93.2225 22.0618 93.5593C19.8899 95.4623 17.5226 114.084 17.3095 117.772C16.0904 138.959 20.0082 159.277 29.134 178.337C34.0638 188.632 40.6152 198.087 48.0721 206.704C49.019 207.797 50.102 208.666 51.0311 209.659C51.2205 209.866 51.4336 210.049 51.623 210.25C51.8123 210.451 52.0195 210.64 52.2148 210.841C52.6113 211.249 52.996 211.621 53.3984 212.023C53.5996 212.218 53.789 212.419 53.9902 212.614C54.3927 213.004 54.7477 213.4 55.1739 213.796C78.8879 235.81 106.549 245.703 139.212 243.936C140.555 243.865 141.691 243.387 142.171 243.345C142.946 243.28 143.763 243.428 144.538 243.345C145.686 243.221 146.538 242.808 146.905 242.754C148.325 242.553 149.622 242.429 151.048 242.163C152.474 241.897 153.829 241.306 155.191 240.981C164.352 238.795 170.388 236.898 178.863 232.708C193.079 225.675 205.649 215.498 215.556 203.158C227.28 190.097 236.311 172.439 240.412 155.288C243.3 143.226 244.608 130.147 243.986 117.737C243.856 115.16 242.631 100.498 240.802 100.397C239.826 100.344 227.735 106.868 222.657 107.418C211.401 108.635 201.695 105.16 191.883 100.326C184.935 95.4328 178.792 88.2522 174.72 80.8235L170.578 67.2308C170.56 67.0358 170.595 66.8348 170.578 66.6398C169.092 48.7565 172.164 35.5656 185.373 22.9066C185.562 22.7471 187.575 22.4161 187.149 21.7306C186.906 21.3464 180.212 18.2437 179.076 17.6705C144.745 0.33678 102.306 1.82607 69.9751 22.9007ZM55.7716 11.081L54.5702 11.9438L50.4512 28.2137H60.5061L55.7657 11.081H55.7716ZM242.193 90.8644C241.743 90.4566 231.789 90.8644 230.061 90.8644C201.536 90.8644 189.066 51.6346 201.855 28.4206C203.453 25.5188 210.312 18.5451 210.235 17.8773C209.922 15.1942 194.422 23.1667 192.889 24.195C152.847 51.1263 185.178 116.886 231.694 99.5874C233.186 99.0319 244.833 93.2638 242.193 90.8644ZM37.4253 33.5267L20.8604 21.1278L30.0276 39.4366L37.4253 33.5267ZM88.9132 21.7247L72.9401 32.3684L80.9237 40.0217L88.9132 21.7247ZM53.3037 32.5102C14.2084 34.6673 16.9308 97.2353 56.0852 96.201C95.4528 95.1609 94.6952 30.229 53.3037 32.5102ZM209.643 73.7257C213.869 79.1747 220.699 83.3234 227.398 84.9545C228.806 85.2973 237.695 86.9166 238.033 85.2559C238.311 83.8967 228.386 64.5832 226.806 61.906C223.397 56.1438 219.473 50.9018 214.97 45.9493L204.607 34.7264C198.837 47.0071 200.062 63.6435 209.643 73.7257ZM22.0381 53.0471C17.6646 54.2113 9.5982 53.3425 5.75732 54.82C5.07081 55.086 4.63879 54.3295 4.88143 55.9843L20.8545 63.082L22.0381 53.0411V53.0471ZM106.076 54.82L88.9132 53.6321L89.5109 62.491L106.076 54.82ZM27.9563 87.3067L22.9318 77.8627L11.3914 92.6315L27.9563 87.3067ZM97.1986 90.2616L87.4218 78.4596L81.2255 87.614C84.3089 88.2227 95.2397 93.843 97.1986 90.2616ZM123.12 86.3138C39.3428 93.4175 56.0261 231.141 140.419 214.694C214.65 200.227 201.737 79.6475 123.12 86.3138ZM244.566 90.2675C245.436 90.4625 245.821 90.0016 246.324 89.381C245.786 89.2628 244.294 89.6174 244.566 90.2675ZM89.505 94.4163C72.8573 88.4236 74.615 92.6256 76.491 107.412L89.505 94.4163ZM48.078 99.7351L39.2067 96.7743L36.8335 115.089C38.9167 114.138 48.5692 100.557 48.078 99.7411V99.7351ZM71.7506 96.7743L63.4474 100.048L72.0465 115.101C74.3664 115.16 72.372 97.4658 71.7447 96.7743H71.7506Z" fill="#181B1C"></path><path d="M69.9729 22.9021C104.564 1.89241 149.998 1.43735 185.01 21.661L185.377 22.9021C173.848 32.4643 167.841 46.9257 168.889 62.1201C168.942 62.8647 169.013 67.1435 170.581 66.6352C170.599 66.8302 170.564 67.0312 170.581 67.2262C171.303 74.4304 171.197 74.3831 174.724 80.8189C178.796 88.2477 184.939 95.4282 191.887 100.322C199.261 105.51 206.706 107.886 215.832 108.625L222.661 107.413C227.733 106.864 239.83 100.339 240.806 100.392C242.635 100.493 243.86 115.161 243.99 117.732C244.611 130.143 243.304 143.216 240.416 155.284C238.954 154.994 239.131 155.945 238.818 156.909C232.846 175.153 227.757 187.965 215.559 203.154C205.652 215.493 193.082 225.67 178.867 232.703L155.194 240.977C153.833 241.302 152.537 241.881 151.051 242.159C142.228 242.035 133.64 243.778 124.728 243.329C98.812 242.023 74.4351 230.487 55.1775 213.791C54.7514 213.395 54.3963 212.999 53.9939 212.609L53.402 212.018C52.9996 211.617 52.6149 211.244 52.2184 210.836L51.6266 210.245C51.4372 210.045 51.2242 209.861 51.0348 209.654L48.0757 206.7C40.6189 198.083 34.0675 188.627 29.1376 178.332C24.5748 164.775 19.4674 151.182 18.4613 136.691C18.047 130.704 18.8046 97.739 22.4265 94.3644C22.8762 93.9448 29.7413 92.0005 30.5876 92.0773C38.364 92.7746 32.1677 101.143 34.4581 105.64C34.4226 106.031 34.4758 106.432 34.4581 106.822H33.8662C33.304 108.01 31.7831 112.283 33.8662 111.55C33.665 114.83 32.3985 121.763 38.7724 119.718C40.7727 119.074 50.733 101.959 52.9404 101.048C53.7394 100.723 57.8111 100.718 58.5923 101.048C59.5628 101.462 69.7065 117.886 69.7539 118.938C69.7835 119.582 65.913 128.689 65.2383 131.047C63.3564 129.688 64.2737 131.207 64.0547 132.82C57.308 153.706 62.8237 177.505 76.4828 194.283C83.6556 203.094 92.8583 210.582 103.114 215.558C123.716 225.552 145.589 223.395 164.071 210.24C214.601 174.284 201.959 97.8217 140.991 82.586C128.32 79.4183 122.674 80.0093 109.956 83.2125C108.228 83.6498 102.316 86.7466 101.623 86.7111C100.428 86.652 93.5804 78.7091 92.4618 77.2671C92.2961 77.0543 92.0357 76.8948 91.87 76.6761C82.034 63.1484 112.234 63.9226 110.796 53.9821C109.713 46.4943 91.3255 50.9799 87.2894 48.1609C79.8562 42.972 99.0783 22.1751 91.2664 17.2995C86.9284 14.5868 83.1644 20.0949 80.0337 22.3052C76.903 24.5155 68.1205 33.1557 64.6347 29.1074C62.6403 26.7908 68.1501 24.0013 69.9729 22.8961V22.9021Z" fill="#FDA9DA"></path><path d="M64.057 133.415C64.0866 133.22 64.0334 133.019 64.057 132.824H64.6489C64.5601 133.049 64.2346 133.238 64.057 133.415Z" fill="#FDA9DA"></path><path d="M53.3036 32.5099C94.6951 30.2287 95.4527 95.1606 56.0851 96.2007C16.9307 97.235 14.2083 34.6611 53.3036 32.5099Z" fill="#FDC63B"></path><path d="M123.118 86.3132C201.735 79.6468 214.649 200.226 140.417 214.694C56.0244 231.141 39.3412 93.4168 123.118 86.3132ZM123.124 93.4109C53.16 99.7463 60.6583 215.261 134.765 208.459C203.99 202.106 197.557 86.6737 123.124 93.4109Z" fill="#E61F93"></path><path d="M242.193 90.866C244.827 93.2654 233.186 99.0335 231.694 99.589C185.178 116.887 152.847 51.1279 192.889 24.1966C194.422 23.1683 209.921 15.1958 210.235 17.8789C210.312 18.5467 203.453 25.5204 201.855 28.4221C189.066 51.6421 201.535 90.866 230.061 90.866C231.789 90.866 241.743 90.4582 242.193 90.866Z" fill="#F6B885"></path><path d="M209.643 73.7266C201.914 63.7625 199.866 48.5445 204.258 36.8489L205.761 36.4766C208.045 40.2884 212.093 42.7942 214.969 45.956C219.473 50.9085 223.397 56.1506 226.806 61.9127L236.867 84.9554H227.397C220.698 83.3301 213.869 79.1814 209.643 73.7325V73.7266Z" fill="#FDA9DA"></path><path d="M89.5043 94.4167L76.4903 107.413C74.6142 92.626 72.8566 88.4299 89.5043 94.4167Z" fill="#FDA9DA"></path><path d="M88.9125 21.7246L80.923 40.0275L72.9395 32.3683L88.9125 21.7246Z" fill="#FDC63B"></path><path d="M37.4242 33.5278L30.0265 39.4377L20.8652 21.1289L37.4242 33.5278Z" fill="#FDC63B"></path><path d="M97.1977 90.263C95.2388 93.8444 84.308 88.2241 81.2246 87.6154L87.4209 78.4609L97.1977 90.263Z" fill="#FDC63B"></path><path d="M27.9555 87.3073L11.3906 92.6321L22.931 77.8633L27.9555 87.3073Z" fill="#FDC63B"></path><path d="M71.7504 96.7734C72.3777 97.4708 74.3721 115.159 72.0522 115.1L63.4531 100.048L71.7563 96.7734H71.7504Z" fill="#FDC63B"></path><path d="M48.0765 99.7343C48.5677 100.55 38.9152 114.137 36.832 115.082L39.2052 96.7676L48.0765 99.7284V99.7343Z" fill="#FDC63B"></path><path d="M22.0388 53.0469L20.8551 63.0878L4.88206 55.99C4.63941 54.3352 5.07736 55.0858 5.75794 54.8257C9.59882 53.3424 17.6653 54.217 22.0388 53.0528V53.0469Z" fill="#FDC63B"></path><path d="M55.7716 11.0801L60.5061 28.2128H50.4512L54.5702 11.9429L55.7716 11.0801Z" fill="#FDC63B"></path><path d="M29.139 178.331C20.0132 159.272 16.0954 138.96 17.3145 117.767C17.5276 114.073 19.8949 95.4569 22.0668 93.554C22.4515 93.2171 30.0681 90.9004 30.6304 90.93C37.9334 91.3141 34.8974 101.036 34.4653 105.64C29.5 102 38.2764 93.1974 30.5 92.5C29.6537 92.4232 22.8835 93.944 22.4337 94.3636C18.8118 97.7382 18.0543 130.703 18.4686 136.69C19.4747 151.181 24.582 164.774 29.1449 178.331H29.139Z" fill="#FDA9DA"></path><path d="M106.075 54.8207L89.5098 62.4917L88.9121 53.6328L106.075 54.8207Z" fill="#FDC63B"></path><path d="M69.9746 22.901C102.305 1.82631 144.744 0.337019 179.082 17.6648C180.218 18.2381 186.911 21.3408 187.154 21.7249C187.58 22.4045 185.574 22.7414 185.378 22.901C172.169 35.5599 169.098 48.7508 170.583 66.6341C169.015 67.1365 168.944 62.8636 168.891 62.119C167.843 46.9247 173.85 32.4691 185.378 22.901L185.012 21.6599C150 1.43626 104.566 1.89132 69.9746 22.901Z" fill="#FDA9DA"></path><path d="M55.1797 213.791C74.4373 230.486 98.8142 242.023 124.73 243.329C133.642 243.778 142.224 242.034 151.054 242.158C149.627 242.424 148.331 242.549 146.911 242.749L144.544 243.34C143.768 243.423 142.952 243.275 142.176 243.34L139.217 243.931C106.555 245.698 78.8937 235.805 55.1797 213.791Z" fill="#FDA9DA"></path><path d="M64.056 133.415C60.8365 156.541 62.3101 174.891 76.4841 194.287C62.825 177.509 57.3093 153.71 64.056 132.824C64.0323 133.019 64.0856 133.22 64.056 133.415Z" fill="#FDA9DA"></path><path d="M65.2393 131.052C65.0854 131.584 64.8546 132.322 64.6475 132.825H64.0556C64.2746 131.211 63.3573 129.692 65.2393 131.052Z" fill="#FDA9DA"></path><path d="M164.072 210.244C145.59 223.4 123.716 225.557 103.115 215.563C123.355 224.168 145.673 222.123 164.072 210.244Z" fill="#FDA9DA"></path><path d="M80.0352 22.3109C83.1659 20.1006 86.9298 14.5926 91.2678 17.3052C99.0798 22.1868 79.8517 42.9837 87.2908 48.1667C91.327 50.9857 109.715 46.5001 110.798 53.9879C112.236 63.9342 82.0355 63.16 91.8715 76.6819C91.2086 75.8249 89.226 74.3474 89.0248 73.3073C86.7345 61.4166 115.544 62.1435 109.076 52.1145C107.892 50.2765 104.418 50.7375 102.524 50.6784C101.583 49.6441 99.6597 50.0992 98.3814 50.0874C93.5345 50.0519 84.9117 50.9207 84.2962 44.337C83.6748 37.6766 105.673 5.98188 80.0352 22.3109Z" fill="#FDA9DA"></path><path d="M140.992 82.5904C140.595 82.5786 140.205 82.6022 139.808 82.5904L138.033 81.9994C137.263 81.9107 136.435 82.094 135.665 81.9994L133.298 81.4084C122.267 80.6697 110.939 82.9095 101.038 87.7379L92.4629 77.2715C93.5814 78.7135 100.429 86.6564 101.624 86.7155C102.317 86.7509 108.223 83.6482 109.957 83.2168C122.681 80.0137 128.321 79.4227 140.992 82.5904Z" fill="#FDA9DA"></path><path d="M222.663 107.412L215.833 108.624C206.708 107.885 199.263 105.509 191.889 100.32C201.701 105.155 211.407 108.63 222.663 107.412Z" fill="#FDA9DA"></path><path d="M214.969 45.9495C212.093 42.7877 208.051 40.2878 205.76 36.47L204.257 36.8424C199.866 48.538 201.913 63.756 209.643 73.72C200.067 63.6378 198.842 47.0014 204.606 34.7207L214.969 45.9436V45.9495Z" fill="#FDA9DA"></path><path d="M227.397 84.9548H236.866L226.805 61.9062C228.391 64.5834 238.31 83.8969 238.031 85.2562C237.694 86.9169 228.805 85.2976 227.397 84.9548Z" fill="#FDA9DA"></path><path d="M178.868 232.701C170.393 236.891 164.357 238.788 155.195 240.975L178.868 232.701Z" fill="#FDA9DA"></path><path d="M174.725 80.8173C171.198 74.3815 171.304 74.4288 170.582 67.2246L174.725 80.8173Z" fill="#FDA9DA"></path><path d="M240.417 155.281C236.315 172.432 227.284 190.091 215.561 203.151C227.758 187.963 232.853 175.15 238.819 156.907C239.133 155.943 238.955 154.992 240.417 155.281Z" fill="#FEF6E7"></path><path d="M33.8729 108.595C33.8433 109.576 33.9321 110.575 33.8729 111.55C31.5 113.5 30.9982 107.5 33.8729 106.822C33.8611 107.413 33.8907 108.004 33.8729 108.595Z" fill="#FDA9DA"></path><path d="M102.524 50.6768C101.233 50.6354 99.3337 51.1436 98.3809 50.0858C99.6592 50.0976 101.583 49.6425 102.524 50.6768Z" fill="#FDA9DA"></path><path d="M142.176 243.34C141.697 243.381 140.56 243.86 139.217 243.931L142.176 243.34Z" fill="#F6B885"></path><path d="M48.0781 206.699L51.0372 209.654C50.108 208.661 49.025 207.793 48.0781 206.699Z" fill="#FEF6E7"></path><path d="M135.666 81.9992C134.666 81.8751 133.423 81.4141 133.299 81.4082L135.666 81.9992Z" fill="#F6B885"></path><path d="M146.91 242.75C146.543 242.803 145.691 243.217 144.543 243.341L146.91 242.75Z" fill="#F6B885"></path><path d="M33.874 108.595C33.8917 108.004 33.8621 107.413 33.874 106.822H34.4658C34.4362 107.49 34.6197 108.247 33.874 108.595Z" fill="#FDA9DA"></path><path d="M139.809 82.591C138.566 82.5437 138.128 82.0118 138.033 82L139.809 82.591Z" fill="#F6B885"></path><path d="M244.566 90.2684C244.294 89.6183 245.785 89.2637 246.324 89.3819C245.821 90.0024 245.436 90.4634 244.566 90.2684Z" fill="#F6B885"></path><path d="M52.2188 210.835C52.0235 210.634 51.8223 210.445 51.627 210.244L52.2188 210.835Z" fill="#FEF6E7"></path><path d="M53.9942 212.609C53.7929 212.414 53.6036 212.213 53.4023 212.018L53.9942 212.609Z" fill="#FEF6E7"></path><path d="M123.125 93.4131C197.558 86.6699 203.991 202.102 134.766 208.461C60.6652 215.263 53.1669 99.7544 123.125 93.4131ZM125.487 97.5441C54.1849 101.728 69.6135 221.427 141.714 202.391C199.635 187.097 186.603 93.9568 125.487 97.5441Z" fill="#181B1C"></path><path d="M125.486 97.5423C186.603 93.955 199.635 187.101 141.714 202.39C69.613 221.425 54.1844 101.727 125.486 97.5423ZM127.753 99.7822C125.622 100.615 125.628 111.407 127.072 112.743C132.144 117.441 132.689 97.8496 127.753 99.7822ZM104.086 106.868C101.098 108.198 106.092 115.107 107.69 115.573C114.751 117.648 107.016 105.562 104.086 106.868ZM152.076 108.103C150.774 108.393 144.353 115.591 148.531 116.779C151.781 117.701 158.066 106.762 152.076 108.103ZM130.931 144.053C130.375 142.895 130.931 121.785 130.931 118.345C130.931 116.631 126.788 116.631 126.788 118.345V143.167C126.788 143.521 122.551 145.276 121.349 147.776C119.639 151.328 121.545 153.391 120.326 155.619C119.515 157.102 102.394 169.294 107.649 171.765C111.247 173.461 121.616 159.088 123.829 158.503C124.971 158.201 134.275 162.87 136.115 154.259C137.973 145.578 131.659 145.578 130.931 144.059V144.053ZM95.8185 127.689C94.9071 126.377 88.4978 121.661 87.184 124.923C85.521 129.054 100.352 134.207 95.8185 127.689ZM162.392 131.56C164.291 132.718 172.494 128.274 170.34 125.691C168.186 123.108 158.977 129.479 162.392 131.56ZM166.144 148.19C164.037 148.899 164.765 152.327 166.144 152.327H175.613C177.329 152.327 177.329 148.19 175.613 148.19H166.144ZM82.1062 148.781L80.6089 150.885L81.5144 152.918H91.5752L92.8358 150.849L91.5752 148.781H82.1062ZM95.9369 169.548C94.7829 167.557 87.5864 172.61 87.2372 174.028C85.7044 180.263 98.168 173.402 95.9369 169.548ZM170.506 176.475C172.553 172.941 160.93 165.589 161.865 171.44C162.185 173.431 169.304 178.555 170.506 176.475ZM102.613 193.608C104.625 196.882 112.253 187.13 109.975 185.381C106.791 182.934 101.524 191.84 102.613 193.608ZM148.514 184.896C143.821 185.984 151.508 196.125 154.053 194.039C156.373 192.136 150.194 184.506 148.514 184.896ZM127.8 188.472C125.119 189.234 125.291 202.484 128.783 201.929C130.783 201.61 132.629 187.101 127.8 188.472Z" fill="#FEF6E7"></path><path d="M130.931 144.054C131.659 145.579 137.973 145.573 136.115 154.254C134.269 162.865 124.971 158.196 123.829 158.498C121.61 159.083 111.247 173.456 107.649 171.76C102.394 169.289 119.515 157.097 120.326 155.614C121.545 153.386 119.639 151.323 121.349 147.771C122.557 145.271 126.788 143.516 126.788 143.162V118.34C126.788 116.626 130.931 116.626 130.931 118.34C130.931 121.78 130.375 142.89 130.931 144.048V144.054ZM127.22 147.724C122.699 148.965 123.936 156.766 129.303 155.767C134.671 154.769 132.955 146.152 127.22 147.724Z" fill="#181B1C"></path><path d="M127.753 99.7811C132.689 97.8486 132.138 117.44 127.072 112.741C125.634 111.406 125.628 100.614 127.753 99.7811Z" fill="#181B1C"></path><path d="M127.801 188.472C132.636 187.101 130.789 201.61 128.783 201.929C125.292 202.485 125.12 189.229 127.801 188.472Z" fill="#181B1C"></path><path d="M166.145 148.189H175.614C177.331 148.189 177.331 152.326 175.614 152.326H166.145C164.766 152.326 164.038 148.899 166.145 148.189Z" fill="#181B1C"></path><path d="M82.1067 148.781H91.5757L92.8422 150.85L91.5757 152.918H81.5149L80.6094 150.885L82.1067 148.781Z" fill="#181B1C"></path><path d="M102.613 193.608C101.524 191.841 106.791 182.935 109.975 185.381C112.253 187.131 104.625 196.888 102.613 193.608Z" fill="#181B1C"></path><path d="M148.513 184.897C150.194 184.507 156.373 192.137 154.053 194.04C151.502 196.132 143.82 185.991 148.513 184.897Z" fill="#181B1C"></path><path d="M152.077 108.102C158.06 106.761 151.775 117.7 148.532 116.778C144.36 115.59 150.775 108.392 152.077 108.102Z" fill="#181B1C"></path><path d="M104.085 106.869C107.014 105.562 114.755 117.648 107.689 115.574C106.091 115.107 101.096 108.198 104.085 106.869Z" fill="#181B1C"></path><path d="M95.8189 127.69C100.352 134.209 85.5154 129.055 87.1844 124.924C88.5041 121.656 94.9075 126.378 95.8189 127.69Z" fill="#181B1C"></path><path d="M95.9381 169.549C98.1752 173.408 85.7056 180.263 87.2384 174.028C87.5876 172.61 94.7841 167.557 95.9381 169.549Z" fill="#181B1C"></path><path d="M170.506 176.476C169.305 178.556 162.179 173.426 161.865 171.441C160.936 165.59 172.56 172.942 170.506 176.476Z" fill="#181B1C"></path><path d="M162.392 131.561C158.972 129.481 168.085 122.997 170.34 125.692C172.595 128.387 164.298 132.713 162.392 131.561Z" fill="#181B1C"></path><path d="M127.222 147.725C132.956 146.153 134.412 154.823 129.305 155.769C123.937 156.767 122.7 148.966 127.222 147.725Z" fill="#E61F93"></path></g><defs><clipPath id="clip0_2165_1390"><rect width="254.545" height="250" fill="white" transform="translate(0.1875)"></rect></clipPath></defs></svg>