<svg xmlns="http://www.w3.org/2000/svg" width="255" height="250" viewBox="0 0 255 250" fill="none"><g clip-path="url(#clip0_2165_1318)"><path d="M248.104 15.6383C230.622 11.1203 207.968 4.33812 189.539 4.52857C181.476 3.48638 175.209 6.32729 169.834 11.935C169.626 12.0779 169.484 12.3265 169.287 12.4641C169.09 12.6016 168.942 12.8503 168.74 12.9931C162.626 17.3259 150.907 25.4466 146.315 30.7316C136.463 42.0582 128.888 58.3842 119.233 70.1552C116.852 78.2758 132.347 69.7478 134.98 67.9121C147.235 59.3788 147.662 43.8463 157.547 35.2337C159.867 33.2128 186.419 18.786 188.455 18.5003C191.142 18.1247 192.576 20.3202 190.6 22.2195C184.541 28.06 165.625 32.5303 159.2 39.4818C156.994 41.8677 142.38 68.9648 141.274 72.4141C139.9 76.7099 139.238 79.4662 145.352 78.4663C154.263 77.0114 165.029 53.4589 173.496 48.0098C175.806 46.5232 204.475 35.3236 206.32 35.239C207.218 35.1966 207.935 35.2548 208.701 35.7468C210.989 40.2489 202.505 40.9843 199.396 42.1005C201.23 43.9045 204.267 45.899 206.555 47.0787C210.94 49.3377 213.972 46.5021 207.606 53.734C207.442 53.9191 207.24 54.0884 207.059 54.263C206.878 54.4376 206.692 54.6122 206.512 54.792C197.442 58.9079 162.243 71.61 158.658 77.0485C156.737 79.9634 155.445 84.2063 160.316 84.9311C165.653 85.7246 192.489 77.9478 200.398 76.657C211.257 74.8847 234.032 74.7895 242.258 70.0335C246.517 67.5735 248.208 61.8017 252.488 63.2566C252.22 64.3728 253.692 64.2512 251.612 67.4412C246.484 75.3132 234.782 78.4821 225.668 78.0748C238.542 106.352 240.78 137.147 231.831 166.825C231.043 169.444 225.63 181.231 225.685 182.046C225.882 184.818 240.589 193.769 242.116 196.811C243.183 198.943 242.193 198.964 242.083 200.281C235.526 198.425 228.821 191.579 223.474 187.056C221.235 183.982 217.836 181.829 215.264 179.12C214.902 178.739 214.464 178.385 214.169 178.062C213.999 177.877 213.791 177.718 213.622 177.533C203.113 165.836 195.34 152.996 180.234 145.262V171.978C180.234 176.364 174.158 181.332 171.476 184.405C174.859 184.516 191.772 188.278 191.64 191.965C191.482 196.314 181.575 190.923 179.26 190.383C157.273 185.257 151.455 192.293 133.349 192.304C122.085 192.309 111.373 184.019 100.875 182.829C97.2463 182.416 92.9387 182.337 89.9284 184.416C79.8738 191.362 108.45 201.879 113.645 204.08C117.733 205.815 143.075 214.253 143.863 215.629C145.084 217.761 143.294 219.274 140.935 218.967C133.064 217.941 116.469 209.296 107.865 206.492C97.1095 202.99 80.4594 200.721 71.1437 195.959C68.9325 194.827 54.5155 181.527 52.4357 179.125C48.4072 174.491 46.289 167.915 41.779 163.503C40.5858 162.339 35.0029 156.954 34.0998 160.863C33.0927 165.228 50.416 195.007 54.1324 199.705C61.9265 209.55 71.1492 211.264 82.2711 216.152C90.3608 219.713 107.022 227.844 115.111 228.849C115.818 228.939 116.584 228.791 117.301 228.849C117.662 228.881 118.034 228.823 118.395 228.849C142.161 230.738 172.068 224.919 193.2 235.637C196.577 237.351 209.314 247.186 210.348 247.365C210.376 248.302 210.628 249.455 209.445 249.942C206.977 250.968 192.122 239.636 188.099 237.917C185.269 236.705 177.262 234.002 174.465 234.224C172.051 234.415 157.623 241.742 153.168 243.149C81.8168 265.681 10.0935 216.893 1.33062 146.5C-8.22044 69.7848 53.0049 4.85128 133.902 13.0725C137.793 13.4692 154.695 17.8338 155.801 17.6433C157.328 17.3788 171.717 2.89915 177.924 0.978761C189.588 -2.62925 224.213 4.6767 236.84 8.27942C240.195 9.23697 250.972 10.7236 248.104 15.6436V15.6383ZM102.512 18.2834C101.641 18.3998 101.477 18.8019 101.417 18.8125C80.7769 21.9179 61.631 30.1232 46.1358 43.677C45.9388 43.841 45.78 44.0421 45.5885 44.2061C41.5765 47.0047 38.4128 50.6656 35.189 54.2577C35.0193 54.4429 34.8059 54.5963 34.6417 54.7867C20.493 70.9064 11.6644 88.2904 7.82206 109.277C7.80564 109.362 7.41156 110.013 7.27473 110.864C3.27915 135.427 6.34972 159.943 17.6742 182.284C27.6686 201.996 43.3936 218.486 63.1033 229.368C75.3582 236.134 86.3378 239.901 100.322 242.065C100.41 242.075 101.023 242.467 101.964 242.594C102.67 242.689 103.442 242.514 104.154 242.594C104.241 242.604 104.734 243.027 105.796 243.123C117.011 244.138 128.855 244.149 139.731 241.006C147.941 239.7 155.943 237.478 163.261 233.605C147.99 232.801 131.034 234.838 115.938 233.055C109.6 232.309 105.517 230.426 99.775 228.31C90.8862 225.035 79.4195 220.305 70.8372 216.338C55.6485 209.317 54.4006 207.545 45.5885 194.452C43.8589 191.88 42.6657 188.923 40.6624 186.516C38.6099 181.321 35.2547 176.814 32.9997 171.703C32.923 171.534 32.5837 171.365 32.4523 171.174C30.6023 165.9 26.3659 156.366 34.9318 154.737C37.2908 154.287 37.9859 156.483 38.473 154.245C38.5387 153.938 38.4402 153.531 38.473 153.187C38.5333 152.51 38.3581 151.7 38.473 151.071C38.9657 148.426 39.108 145.363 41.7571 143.664H48.3251L48.8725 122.503C49.4198 119.456 49.8358 118.096 51.642 115.52C55.1122 110.557 54.948 116.202 55.4406 107.161C55.6048 104.183 55.3256 101.146 55.4406 98.1675C55.8948 96.1942 57.0443 94.5171 58.1773 92.8771C58.5002 92.5756 59.0585 91.9884 59.2719 91.8191C65.84 86.6293 76.2285 83.4445 84.4495 81.7674C86.8797 81.2702 89.1238 81.048 91.5649 80.7094C96.1681 80.0692 100.859 79.3868 105.5 79.1011C108.768 78.9001 121.499 79.7624 123.201 79.0165C126.551 77.551 118.324 77.4664 116.452 76.4612C114.581 75.4561 113.809 72.303 114.351 70.2292C114.728 68.7903 123.896 55.1412 125.56 52.5965C131.575 43.3861 138.893 33.2815 145.746 24.6318C145.899 24.4414 146.146 24.2986 146.293 24.1028L150.125 21.9814L149.583 21.1931C144.197 19.6748 138.718 18.9289 133.163 18.2834C133.075 18.2729 132.566 17.8549 131.521 17.7544C130.349 17.638 127.596 17.2254 126.868 17.2254H111.543C109.386 17.2254 104.925 17.9607 102.512 18.2834ZM203.764 50.036C203.518 49.4964 194.536 44.825 192.795 44.9573C191.055 45.0896 167.952 53.972 170.935 56.8976C172.867 58.7915 187.273 58.3842 190.546 57.6065C192.33 57.1833 204.59 51.8559 203.769 50.0307L203.764 50.036ZM177.492 62.1985L168.023 60.6696L162.73 67.7534L177.492 62.1985ZM135.899 73.8319C135.938 73.4034 137.667 71.9274 136.726 71.1921L132.615 74.89C128.872 77.022 130.448 76.4454 128.237 79.1223C122.303 86.3065 121.313 89.5601 111.138 92.4857C106.338 93.8612 101.105 93.5067 96.5621 95.8556C93.0537 97.6702 87.8102 107.225 85.2322 105.108C82.2821 102.691 88.1167 98.9716 87.1862 98.1728C86.5951 97.6649 73.5958 101.559 71.8936 102.167C70.1913 102.775 66.349 103.712 65.8455 105.569C95.3251 116.673 134.443 118.34 163.266 105.055L147.678 99.7493C147.18 99.8921 148.193 103.907 147.946 105.05C147.585 104.934 147.186 104.585 146.852 104.521C144.394 102.913 140.721 94.3214 137.268 94.6018C136.644 94.6547 129.309 100.173 126.792 101.268C122.145 103.283 107.991 106.902 103.377 106.114C101.028 105.711 99.8079 103.347 102.517 101.876L106.349 101.347C118.68 99.3684 128.937 98.7547 137.525 88.3645C139.249 86.2801 141.455 84.5872 139.736 82.3018C137.788 79.7042 136.173 80.7887 135.905 75.9534C135.883 75.6042 135.905 75.2445 135.905 74.8953C135.905 74.5461 135.877 74.1811 135.905 73.8372L135.899 73.8319ZM216.906 79.1223C216.008 79.0905 215.066 79.08 214.169 79.1223C213.03 79.1752 212.094 79.6407 211.98 79.6513C211.438 79.6989 210.874 79.5984 210.337 79.6513C209.298 79.7571 208.422 80.1486 208.148 80.1803C207.617 80.2438 207.037 80.1063 206.506 80.1803C205.565 80.3073 204.952 80.6988 204.864 80.7094C201.29 81.2437 165.122 86.9467 164.919 88.9094C164.848 89.613 172.155 92.9671 173.102 100.03C173.523 103.167 172.352 110.388 173.086 112.626C173.299 113.271 178.942 116.334 180.228 123.032V139.432C180.666 140.67 198.734 152.753 201.591 155.552C208.011 161.837 212.532 170.761 219.637 176.464C219.823 176.634 219.987 176.835 220.184 176.993C220.562 177.306 220.901 178.612 221.815 178.052C224.568 176.353 229.938 152.706 230.584 148.426C230.594 148.341 231.01 147.791 231.131 146.839C231.218 146.151 231.06 145.415 231.131 144.722C231.18 144.236 231.602 143.283 231.678 142.077C231.744 141.03 231.662 139.956 231.678 138.903C232.702 136.977 232.22 134.179 232.226 132.026C232.226 131.497 232.226 130.968 232.226 130.439C232.226 130.264 232.226 130.084 232.226 129.909C232.226 129.38 232.237 128.851 232.226 128.322C232.209 127.333 232.609 125.836 231.678 125.148C231.634 120.36 231.328 116.107 230.584 111.393C230.419 110.351 230.222 109.267 230.036 108.219C229.883 107.351 229.669 106.447 229.489 105.574C229.401 105.151 229.451 104.717 228.942 104.516C228.411 101.019 221.936 79.2916 219.089 78.5932L216.9 79.1223H216.906ZM152.856 84.4126V79.6513L146.846 82.3018L152.856 84.4126ZM119.479 83.3598C107.662 82.1219 67.3123 85.9151 61.0125 96.4058C59.8521 98.3421 59.7755 102.167 62.2768 102.294C62.8625 102.326 70.2297 98.0828 72.8459 97.2681C81.6143 94.5383 90.9629 92.3746 99.775 89.9675C106.381 88.1687 114.383 89.2533 119.479 83.3598ZM140.842 91.7979C142.446 95.4641 162.818 98.0458 166.419 102.32C172.423 100.696 166.446 95.0673 163.77 93.184C161.093 91.3006 146.458 85.7564 143.923 86.4864C143.622 86.5711 140.721 91.5175 140.842 91.7979ZM169.276 106.632C143.869 122.006 95.2814 122.101 68.2045 110.954C64.3512 109.367 55.6595 102.008 59.8849 111.06C61.8225 115.218 75.5662 118.694 80.0489 119.609C84.2634 120.466 97.8429 121.143 99.9502 122.064C101.45 122.72 100.859 125.355 99.9392 125.698C94.4439 127.756 64.499 121.561 59.5346 115.631C56.7268 123.625 69.2007 127.36 75.1393 129.116C96.7537 135.512 139.068 135.983 159.796 126.831C162.724 125.534 172.369 120.419 169.271 116.16C168.953 115.726 161.767 120.784 159.796 121.545C157.289 122.514 139.889 128.222 141.969 122.339C142.604 120.54 172.598 117.498 169.271 106.637L169.276 106.632ZM55.4296 118.8C49.0148 124.937 59.1898 130.804 64.3731 133.174C87.8157 143.887 147.339 144.347 169.238 130.132C173.704 127.233 179.073 122.963 173.118 118.271C173.726 125.153 164.93 129.084 159.419 131.221C136.392 140.157 92.6432 140.099 69.5345 131.359C63.9462 129.248 55.342 125.571 55.4296 118.8ZM52.7039 130.968C51.4067 132.592 52.7039 166.841 52.7039 171.968C52.7039 178.242 70.0107 185.744 75.402 187.061C88.27 190.209 80.1529 186.611 85.8288 181.236C96.376 171.253 118.954 186.585 130.711 187.564C135.1 187.929 160.103 184.527 164.503 183.215C167.557 182.305 175.855 175.1 175.855 171.968V130.439C149.714 148.759 94.4001 149.219 65.3036 138.099C62.6162 137.073 53.1472 130.412 52.7039 130.968ZM48.8725 147.897C37.4167 144.59 44.5759 160.794 48.8725 164.297V147.897ZM85.7631 194.229C81.171 191.32 74.9094 191.902 69.6714 189.696C74.4934 194.415 82.3915 194.801 88.56 197.081C88.4177 195.901 86.7046 194.827 85.7631 194.229Z" fill="#181B1C"></path><path d="M213.622 177.523L214.169 178.052C214.465 178.375 214.902 178.729 215.264 179.11C217.294 182.337 220.6 184.617 223.474 187.046C228.821 191.569 235.526 198.415 242.083 200.271C241.011 213.831 232.204 231.066 221.837 240.219C220.053 241.795 212.363 247.699 210.338 247.355C209.303 247.181 196.561 237.341 193.19 235.627C172.057 224.903 142.156 230.728 118.385 228.839L120.021 227.786C106.223 228.76 95.1502 218.957 82.2604 216.142C71.1384 211.254 61.9212 209.535 54.1217 199.695C50.4052 194.997 33.082 165.218 34.0891 160.853C34.9922 156.944 40.575 162.329 41.7682 163.493C46.2783 167.905 48.3965 174.481 52.4249 179.115C54.5103 181.512 68.9217 194.817 71.133 195.949C80.4487 200.711 97.0987 202.98 107.854 206.482C116.458 209.286 133.048 217.931 140.924 218.957C143.289 219.264 145.078 217.756 143.852 215.619C143.064 214.243 117.717 205.805 113.634 204.07C108.44 201.869 79.863 191.347 89.9176 184.406L100.864 182.819C111.362 184.009 122.074 192.304 133.338 192.294C151.444 192.283 157.262 185.247 179.249 190.373C181.57 190.913 191.476 196.304 191.63 191.955C191.766 188.268 174.848 184.506 171.466 184.395C174.148 181.321 180.223 176.354 180.223 171.968V145.252C195.33 152.986 203.102 165.826 213.611 177.523H213.622Z" fill="#F6B885"></path><path d="M248.105 15.6384C250.283 16.2045 251.044 19.8072 251.777 21.8757C256.118 34.1546 255.516 50.7451 252.483 63.2514C248.203 61.7966 246.506 67.5684 242.254 70.0284C234.027 74.7844 211.252 74.8743 200.393 76.6519C192.484 77.9427 165.648 85.7195 160.312 84.9259C155.44 84.2012 156.732 79.9583 158.653 77.0433C162.238 71.6049 197.438 58.9081 206.507 54.7869C206.715 54.6917 206.885 54.4166 207.054 54.2579C207.235 54.0833 207.437 53.914 207.602 53.7288C218.729 45.714 203.721 48.0893 204.257 42.8837C204.476 40.7411 213.425 38.7572 208.696 35.7417C207.93 35.2497 207.218 35.1915 206.315 35.2338C204.471 35.3238 175.807 46.5181 173.491 48.0047C165.024 53.4537 154.258 77.0063 145.347 78.4611C139.239 79.461 139.896 76.7048 141.27 72.409C142.375 68.9597 156.984 41.8626 159.195 39.4767C165.621 32.5305 184.537 28.0549 190.596 22.2143C192.572 20.3098 191.132 18.1143 188.45 18.4952C186.414 18.7809 159.863 33.2076 157.542 35.2285C147.657 43.8412 147.23 59.3736 134.975 67.9069C132.343 69.7427 116.847 78.2707 119.228 70.15C128.883 58.3738 136.458 42.0478 146.311 30.7265C150.908 25.4467 162.627 17.3208 168.735 12.988L169.282 12.459C169.479 12.3214 169.622 12.0728 169.83 11.9299C176.836 7.11572 180.333 4.61868 189.534 4.52346C207.963 4.333 230.617 11.1152 248.099 15.6332L248.105 15.6384Z" fill="#F6B885"></path><path d="M33.0002 171.703H32.4529C32.4146 171.539 32.5076 171.327 32.4529 171.174C32.5843 171.364 32.9236 171.534 33.0002 171.703Z" fill="#FDA9DA"></path><path d="M46.1365 43.6772C68.4351 25.2298 100.383 16.0722 129.589 18.2995C131.604 18.4529 147.285 20.8177 147.936 21.4631C148.385 21.9075 146.688 23.5898 146.3 24.103C146.152 24.2987 145.905 24.4416 145.752 24.632C143.639 25.7536 141.45 28.6156 140.049 30.4937C134.067 38.5297 118.161 60.019 114.625 67.944C112.419 72.8798 113.366 74.795 117.291 78.0591L91.5657 80.7095C89.1245 81.0481 86.8804 81.2703 84.4503 81.7676C75.9118 81.9739 65.0745 85.8517 59.2727 91.8192C59.0592 91.9885 58.5009 92.5758 58.178 92.8773C50.6083 100.025 56.5469 105.855 54.3521 112.594C54.0565 113.51 48.7857 116.906 47.9154 121.842C47.3407 125.101 48.5448 141.876 47.784 142.612C47.5651 142.818 44.2646 142.062 41.7578 143.665C39.1087 145.363 38.9664 148.426 38.4738 151.071C36.3994 150.621 37.7896 153.335 37.3846 153.721C37.0233 154.06 31.2325 153.203 29.3387 158.372C27.3792 163.725 30.5647 167.386 32.4585 171.709C34.7683 176.978 37.806 181.818 40.1486 187.061L40.6686 186.522C42.6719 188.929 43.8651 191.886 45.5947 194.457C45.9614 196.891 48.4682 200.726 49.9734 202.657C60.6903 216.375 84.0233 221.797 99.7812 228.315C105.523 230.431 109.606 232.315 115.944 233.061C131.04 234.843 147.996 232.807 163.267 233.611C155.944 237.483 147.947 239.705 139.737 241.012C119.677 244.207 98.3855 243.176 79.2232 236.282C73.7498 234.314 68.7799 230.77 63.1095 229.373C43.3998 218.491 27.6748 202.001 17.6804 182.289C16.4434 176.978 13.7122 172.058 12.0647 166.82C-0.261388 127.746 7.99796 86.2803 34.6424 54.7869C34.8066 54.5965 35.0201 54.443 35.1898 54.2579C39.1963 51.7079 42.037 47.2217 45.5892 44.2062C45.7808 44.0422 45.9395 43.8412 46.1365 43.6772Z" fill="#FDA9DA"></path><path d="M229.497 105.574H228.949C228.911 105.23 228.999 104.854 228.949 104.516C229.458 104.717 229.409 105.15 229.497 105.574Z" fill="#FDA9DA"></path><path d="M219.642 176.463C213.139 170.464 208.493 161.571 201.886 155.276C199.33 152.837 181.87 140.5 181.487 139.283C179.259 132.157 184.174 124.708 178.493 116.508C177.546 115.138 174.213 112.826 174.01 112.313C173.244 110.371 174.607 101.526 173.534 97.4998C172.62 94.0717 166.769 89.5961 167.097 89.1781C168.717 87.1308 213.643 79.5444 219.543 79.7137L228.947 105.573C229.056 106.61 228.859 107.705 228.952 108.747L230.041 108.218C230.227 109.266 230.424 110.35 230.589 111.392C231.798 132.977 231.711 155.873 221.995 175.844C221.492 176.876 222.149 177.289 220.189 176.992C219.992 176.834 219.828 176.633 219.642 176.463Z" fill="#FDA9DA"></path><path d="M52.7054 130.968C53.1543 130.408 62.6177 137.068 65.3052 138.1C94.4017 149.22 149.716 148.76 175.857 130.439V171.969C175.857 175.1 167.559 182.306 164.505 183.216C160.104 184.528 135.102 187.935 130.712 187.564C118.955 186.58 96.3831 171.249 85.8304 181.237C80.1545 186.612 88.2715 190.21 75.4036 187.062C70.0178 185.745 52.7054 178.243 52.7054 171.969C52.7054 166.842 51.4082 132.593 52.7054 130.968ZM160.531 143.136C130.707 151.765 98.1182 153.177 68.5783 142.607V172.233C68.5783 174.249 106.722 177.476 109.875 177.55C114.04 177.65 160.531 175.772 160.531 172.498V143.136Z" fill="#E61F93"></path><path d="M169.277 106.632C172.605 117.493 142.611 120.535 141.976 122.334C139.896 128.217 157.296 122.503 159.803 121.54C161.773 120.779 168.96 115.721 169.277 116.155C172.375 120.419 162.731 125.535 159.803 126.825C139.075 135.978 96.76 135.507 75.1456 129.111C69.207 127.354 56.7331 123.619 59.541 115.626C64.5053 121.556 94.4503 127.751 99.9455 125.693C100.865 125.349 101.456 122.72 99.9565 122.059C97.8547 121.138 84.2697 120.461 80.0552 119.604C75.5725 118.689 61.8288 115.213 59.8913 111.055C55.6658 101.998 64.3576 109.362 68.2108 110.949C95.2822 122.096 143.875 122.001 169.282 106.627L169.277 106.632Z" fill="#E61F93"></path><path d="M135.901 75.9492C136.169 80.7846 137.784 79.7001 139.733 82.2976C135.901 87.1224 131.09 91.1113 125.89 94.5765L104.703 101.343C103.712 101.517 103.674 101.237 102.514 101.872C99.8097 103.343 101.03 105.707 103.373 106.109C107.987 106.898 122.141 103.284 126.788 101.263C129.306 100.168 136.64 94.6453 137.264 94.5976C140.718 94.3173 144.39 102.909 146.848 104.517C144.998 104.163 145.014 102.845 143.34 102.903C143.099 102.914 141.572 104.766 139.185 105.316C132.672 106.818 125.808 107.13 119.486 109.273C124.226 111.04 146.81 110.215 147.943 105.051C148.194 103.909 147.176 99.8933 147.674 99.7504L163.263 105.057C134.44 118.335 95.3215 116.674 65.8418 105.57C66.3453 103.713 70.2534 102.755 71.8899 102.168C73.5264 101.581 86.5859 97.666 87.1825 98.1739C88.113 98.9728 82.2839 102.697 85.2285 105.11C87.8065 107.22 93.05 97.666 96.5585 95.8567C101.101 93.5078 106.334 93.8676 111.134 92.4868C121.309 89.5665 122.305 86.3077 128.233 79.1234C131.238 80.1603 133.854 77.5575 135.896 75.9492H135.901Z" fill="#FEF6E7"></path><path d="M55.4303 118.801C55.3428 125.572 63.9469 129.249 69.5353 131.36C92.6439 140.094 136.398 140.158 159.419 131.222C164.931 129.085 173.727 125.154 173.119 118.271C179.069 122.964 173.699 127.233 169.239 130.132C147.339 144.348 87.8219 143.887 64.3739 133.174C59.1851 130.804 49.01 124.943 55.4303 118.801Z" fill="#E61F93"></path><path d="M119.479 83.3602C114.389 89.2536 106.381 88.1691 99.7748 89.9678C90.9627 92.3696 81.6087 94.5387 72.8458 97.2685C70.2295 98.0832 62.8678 102.326 62.2766 102.294C59.7753 102.167 59.8519 98.3424 61.0123 96.4062C67.3122 85.9154 107.662 82.1223 119.479 83.3602Z" fill="#E61F93"></path><path d="M203.766 50.0352C204.593 51.855 192.327 57.1877 190.543 57.6109C187.269 58.3833 172.864 58.796 170.931 56.902C167.948 53.9765 191.057 45.094 192.792 44.9617C194.527 44.8295 203.52 49.5008 203.761 50.0405L203.766 50.0352Z" fill="#F6B885"></path><path d="M140.843 91.7989C140.723 91.5185 143.624 86.5774 143.925 86.4874C146.465 85.7573 161.133 91.3281 163.772 93.185C166.41 95.0419 172.425 100.697 166.421 102.321C162.819 98.0521 142.447 95.4651 140.843 91.7989Z" fill="#E61F93"></path><path d="M146.848 104.515C147.182 104.579 147.581 104.928 147.942 105.044C146.809 110.208 124.226 111.038 119.486 109.266C125.814 107.123 132.672 106.811 139.185 105.309C141.566 104.759 143.093 102.907 143.339 102.896C145.02 102.838 144.998 104.156 146.848 104.51V104.515Z" fill="#FDA9DA"></path><path d="M106.343 101.342C105.829 101.427 105.21 101.252 104.701 101.342L125.889 94.5757C131.094 91.1106 135.905 87.1269 139.731 82.2969C141.45 84.5876 139.244 86.2805 137.52 88.3596C128.932 98.7445 118.675 99.3635 106.343 101.342Z" fill="#FDA9DA"></path><path d="M48.8738 147.897V164.297C44.5772 160.795 37.418 144.591 48.8738 147.897Z" fill="#F6B885"></path><path d="M131.521 17.7556L133.163 18.2846C138.724 18.9248 144.198 19.676 149.583 21.1943L150.125 21.9826L146.294 24.104C146.688 23.5908 148.379 21.9085 147.93 21.4641C147.279 20.8187 131.598 18.4539 129.584 18.3005C100.372 16.0733 68.424 25.2308 46.1309 43.6782C61.626 30.1244 80.7719 21.9191 101.412 18.8137L102.507 18.2846C104.921 17.9619 109.381 17.2266 111.538 17.2266H126.863C127.591 17.2266 130.344 17.6392 131.516 17.7556H131.521Z" fill="#FDA9DA"></path><path d="M34.6429 54.7871C7.99846 86.2805 -0.260882 127.746 12.0597 166.815C13.7127 172.053 16.4384 176.973 17.6754 182.284C6.35097 159.943 3.2804 135.428 7.27598 110.865L7.82332 109.278C11.6656 88.2908 20.4942 70.9068 34.6429 54.7871Z" fill="#FDA9DA"></path><path d="M231.686 125.149C231.696 126.139 231.308 127.636 232.233 128.324C232.244 128.853 232.233 129.382 232.233 129.911V130.44C232.233 130.969 232.233 131.498 232.233 132.027C231.187 133.968 231.724 136.735 231.686 138.904C231.669 139.957 231.751 141.031 231.686 142.078L231.138 144.724C231.067 145.417 231.226 146.152 231.138 146.84L230.591 148.427C229.945 152.707 224.581 176.355 221.822 178.053C220.908 178.614 220.569 177.307 220.191 176.995C222.151 177.291 221.494 176.878 221.998 175.847C231.713 155.876 231.8 132.979 230.591 111.395C231.335 116.108 231.642 120.362 231.686 125.149Z" fill="#FDA9DA"></path><path d="M228.949 104.517C228.998 104.856 228.91 105.231 228.949 105.575L219.545 79.7162C213.645 79.5469 168.719 87.1332 167.099 89.1806C166.771 89.5985 172.622 94.0741 173.536 97.5023C174.614 101.528 173.251 110.374 174.012 112.315C174.215 112.828 177.548 115.146 178.495 116.51C184.176 124.71 179.261 132.159 181.489 139.285C181.867 140.502 199.327 152.839 201.888 155.278C208.495 161.574 213.141 170.467 219.644 176.466C212.539 170.763 208.024 161.838 201.598 155.553C198.741 152.755 180.668 140.677 180.235 139.433C181.1 134.297 181.215 128.149 180.235 123.033C178.949 116.336 173.306 113.273 173.093 112.627C172.354 110.39 173.531 103.174 173.109 100.031C172.162 92.9684 164.85 89.6144 164.926 88.9108C165.129 86.948 201.297 81.2451 204.871 80.7107L206.513 80.1817C207.044 80.1076 207.624 80.2452 208.155 80.1817L210.345 79.6527C210.881 79.5998 211.445 79.7003 211.987 79.6527L214.176 79.1236C215.074 79.0813 216.015 79.0919 216.913 79.1236C218.111 79.1607 218.993 78.5682 219.102 78.5946C221.948 79.2929 228.423 101.02 228.954 104.517H228.949Z" fill="#FDA9DA"></path><path d="M230.043 108.219L228.954 108.748C228.86 107.706 229.058 106.611 228.948 105.574H229.495C229.676 106.447 229.889 107.352 230.043 108.219Z" fill="#FDA9DA"></path><path d="M145.753 24.6328C138.901 33.2825 131.583 43.387 125.567 52.5975C123.904 55.1475 114.736 68.7912 114.358 70.2302C113.816 72.304 114.528 75.4253 116.46 76.4622C118.392 77.4991 126.558 77.552 123.208 79.0174C121.506 79.7634 108.775 78.9011 105.508 79.1021C100.861 79.3878 96.1699 80.0649 91.5723 80.7103L117.297 78.0599C113.373 74.7958 112.426 72.8807 114.632 67.9448C118.167 60.0251 134.073 38.5305 140.056 30.4945C141.457 28.6164 143.646 25.7544 145.759 24.6328H145.753Z" fill="#FDA9DA"></path><path d="M139.733 241.006C128.857 244.148 117.013 244.138 105.798 243.122L104.156 242.593C103.444 242.514 102.673 242.688 101.967 242.593L100.325 242.064C86.34 239.9 75.3604 236.134 63.1055 229.367C68.7759 230.759 73.7457 234.303 79.2191 236.276C98.3815 243.175 119.667 244.201 139.733 241.006Z" fill="#FDA9DA"></path><path d="M135.899 74.8904C135.899 75.2395 135.877 75.5993 135.899 75.9484C133.857 77.5567 131.241 80.1595 128.236 79.1226C130.448 76.4457 128.871 77.0224 132.615 74.8904C132.9 74.7317 133.715 74.5994 134.257 74.3613L135.899 74.8904Z" fill="#FEF6E7"></path><path d="M58.178 92.877C57.045 94.517 55.8956 96.194 55.4413 98.1673C54.7681 101.088 54.3192 104.272 55.4413 107.161C54.9487 116.202 55.1129 110.557 51.6428 115.52C49.8365 118.101 49.4206 119.456 48.8732 122.503C47.6253 129.47 48.6652 136.649 48.3259 143.664H41.7578C44.2646 142.061 47.5651 142.818 47.784 142.611C48.5448 141.881 47.3461 125.106 47.9154 121.842C48.7802 116.9 54.051 113.509 54.3521 112.594C56.5469 105.854 50.6138 100.024 58.178 92.877Z" fill="#FDA9DA"></path><path d="M207.603 53.7293C213.968 46.4974 210.936 49.3331 206.552 47.0741C204.264 45.8943 201.226 43.8999 199.393 42.0959C202.501 40.9796 210.985 40.2443 208.697 35.7422C213.426 38.7577 204.477 40.7416 204.258 42.8841C203.722 48.0898 218.73 45.7145 207.603 53.7293Z" fill="#F6B885"></path><path d="M84.451 81.7676C76.23 83.4446 65.8415 86.6294 59.2734 91.8192C65.0752 85.8517 75.9125 81.9739 84.451 81.7676Z" fill="#FDA9DA"></path><path d="M45.5898 194.453C54.3965 207.547 55.6445 209.324 70.8386 216.339C79.4209 220.307 90.8876 225.031 99.7764 228.311C84.0185 221.788 60.6909 216.366 49.9686 202.653C48.4634 200.722 45.9511 196.887 45.5898 194.453Z" fill="#FDA9DA"></path><path d="M40.6632 186.516L40.1432 187.056C37.8006 181.813 34.7684 176.972 32.4531 171.703H33.0005C35.2555 176.814 38.6107 181.321 40.6632 186.516Z" fill="#FDA9DA"></path><path d="M38.4721 151.071C38.3572 151.701 38.5323 152.51 38.4721 153.187V154.245C37.985 156.483 37.2899 154.287 34.9308 154.737C26.365 156.372 30.6014 165.9 32.4514 171.174C32.5061 171.328 32.4131 171.539 32.4514 171.703C30.5576 167.386 27.3721 163.72 29.3315 158.366C31.2253 153.198 37.0162 154.055 37.3774 153.716C37.7879 153.335 36.3922 150.616 38.4666 151.066L38.4721 151.071Z" fill="#FDA9DA"></path><path d="M152.857 84.4136L146.848 82.3081L152.857 79.6523V84.4136Z" fill="#FDA9DA"></path><path d="M48.327 143.665C48.6663 136.65 47.6264 129.471 48.8743 122.504L48.327 143.665Z" fill="#F6B885"></path><path d="M180.234 139.433V123.033C181.214 128.149 181.099 134.296 180.234 139.433Z" fill="#FDA9DA"></path><path d="M100.871 182.814L89.9238 184.401C92.9342 182.322 97.2418 182.402 100.871 182.814Z" fill="#F6B885"></path><path d="M82.2617 216.143C95.157 218.962 106.23 228.76 120.023 227.787L118.386 228.839C118.025 228.813 117.653 228.871 117.291 228.839H115.102C107.012 227.834 90.3514 219.703 82.2617 216.143Z" fill="#F6B885"></path><path d="M189.54 4.52897C180.339 4.6242 176.842 7.12124 169.836 11.9354C175.211 6.32769 181.478 3.48678 189.54 4.52897Z" fill="#F6B885"></path><path d="M55.4413 107.162C54.3192 104.273 54.768 101.088 55.4413 98.168C55.3263 101.146 55.6055 104.183 55.4413 107.162Z" fill="#FDA9DA"></path><path d="M231.684 138.903C231.722 136.734 231.186 133.967 232.231 132.025C232.231 134.179 232.708 136.977 231.684 138.903Z" fill="#FDA9DA"></path><path d="M135.899 73.8332C135.609 72.6958 134.602 74.2088 134.257 74.3623C133.715 74.6003 132.9 74.7326 132.615 74.8913L136.726 71.1934C137.667 71.9287 135.938 73.4047 135.899 73.8332Z" fill="#FEF6E7"></path><path d="M135.9 73.8327C135.872 74.1766 135.9 74.5416 135.9 74.8908L134.258 74.3617C134.603 74.2083 135.61 72.6953 135.9 73.8327Z" fill="#FEF6E7"></path><path d="M104.701 101.341C105.21 101.251 105.829 101.426 106.343 101.341L102.512 101.87C103.672 101.235 103.71 101.516 104.701 101.341Z" fill="#F6B885"></path><path d="M45.5889 44.207C42.0367 47.2225 39.196 51.7087 35.1895 54.2587C38.4133 50.6665 41.5769 47.0056 45.5889 44.207Z" fill="#FDA9DA"></path><path d="M232.232 128.323C231.307 127.635 231.696 126.138 231.685 125.148C232.616 125.836 232.216 127.333 232.232 128.323Z" fill="#FDA9DA"></path><path d="M231.137 144.723L231.684 142.078C231.607 143.284 231.186 144.237 231.137 144.723Z" fill="#F6B885"></path><path d="M210.338 79.6523L208.148 80.1814C208.422 80.1496 209.298 79.7582 210.338 79.6523Z" fill="#F6B885"></path><path d="M214.17 79.123L211.98 79.6521C212.095 79.6415 213.031 79.176 214.17 79.123Z" fill="#F6B885"></path><path d="M117.291 228.84C116.574 228.782 115.808 228.93 115.102 228.84H117.291Z" fill="#F6B885"></path><path d="M219.096 78.5946C218.986 78.5682 218.105 79.1607 216.906 79.1236L219.096 78.5946Z" fill="#F6B885"></path><path d="M206.507 80.1816L204.865 80.7107C204.953 80.7001 205.566 80.3086 206.507 80.1816Z" fill="#F6B885"></path><path d="M133.164 18.2829L131.521 17.7539C132.567 17.8544 133.076 18.2724 133.164 18.2829Z" fill="#F6B885"></path><path d="M230.59 148.427L231.137 146.84C231.017 147.792 230.601 148.342 230.59 148.427Z" fill="#F6B885"></path><path d="M215.264 179.111C217.836 181.82 221.235 183.973 223.474 187.047C220.6 184.619 217.294 182.338 215.264 179.111Z" fill="#FDA9DA"></path><path d="M7.27539 110.864C7.41223 110.013 7.80631 109.362 7.82273 109.277L7.27539 110.864Z" fill="#F6B885"></path><path d="M101.964 242.595C101.023 242.468 100.41 242.077 100.322 242.066L101.964 242.595Z" fill="#F6B885"></path><path d="M105.796 243.123C104.734 243.028 104.242 242.604 104.154 242.594L105.796 243.123Z" fill="#F6B885"></path><path d="M38.4737 154.246V153.188C38.4408 153.531 38.5396 153.939 38.4737 154.246Z" fill="#FDA9DA"></path><path d="M102.513 18.2832L101.418 18.8122C101.478 18.8017 101.642 18.3996 102.513 18.2832Z" fill="#F6B885"></path><path d="M168.742 12.9939C168.945 12.851 169.087 12.6077 169.29 12.4648L168.742 12.9939Z" fill="#FDA9DA"></path><path d="M214.17 178.052L213.623 177.523C213.793 177.709 214.001 177.867 214.17 178.052Z" fill="#FDA9DA"></path><path d="M85.7636 194.229C86.7051 194.827 88.4182 195.901 88.5605 197.081C82.3866 194.8 74.4885 194.414 69.6719 189.695C74.9099 191.901 81.1715 191.319 85.7636 194.229Z" fill="#F6B885"></path><path d="M177.492 62.1988L162.73 67.7537L168.023 60.6699L177.492 62.1988Z" fill="#FDA9DA"></path><path d="M206.508 54.7868C206.688 54.607 206.875 54.4324 207.055 54.2578C206.885 54.4165 206.716 54.6916 206.508 54.7868Z" fill="#FDA9DA"></path><path d="M160.531 143.136V172.498C160.531 175.773 114.04 177.651 109.875 177.55C106.722 177.476 68.5781 174.249 68.5781 172.233V142.607C98.118 153.178 130.707 151.765 160.531 143.136ZM153.963 151.601C152.584 150.241 139.032 152.194 143.854 160.05C145.129 162.123 155.517 164.065 150.537 166.557C146.64 168.504 144.051 163.25 143.284 163.256C141.867 163.266 143.761 169.985 144.374 170.107C144.505 170.133 145.561 169.117 146.147 169.138C148.709 169.234 152.704 170.006 154.089 166.811C157.641 158.595 146.262 159.357 145.961 156.092C145.539 151.511 154.155 156.706 154.499 156.357C154.669 156.182 154.133 151.765 153.958 151.596L153.963 151.601ZM91.5664 169.059C85.0311 170.979 85.0968 148.797 79.0487 152.733C78.2277 153.267 74.4128 166.329 71.3093 167.202C78.8626 169.361 75.0696 166.832 75.1571 166.149C75.3378 164.763 82.2014 165.938 82.9512 166.403C84.8943 167.615 81.8401 168.821 88.0853 170.043C94.3304 171.265 105.808 172.318 107.308 164.441C109.421 153.336 97.8498 153.749 89.9298 153.193C89.4372 154.574 91.5664 154.664 91.5664 154.775V169.059ZM141.916 152.664L135.901 153.193C139.141 156.426 138.824 172.805 130.794 168.043C128.621 166.753 128.55 155.643 130.964 153.722L123.859 154.521C123.46 155.928 125.392 154.86 125.534 155.595C126.716 161.716 121.894 172.461 133.914 171.133C142.825 170.149 138.654 161.081 139.853 155.669C140.121 154.463 142.546 153.146 141.911 152.664H141.916ZM122.217 154.246H107.987C110.69 158.166 110.499 167.186 107.987 171.17H124.401C122.376 162.467 120.542 171.741 114.002 169.588V163.763L120.028 164.557C121.424 155.421 116.591 164.134 114.002 161.653C113.805 161.467 113.805 156.542 114.002 156.357C114.752 155.638 120.296 156.754 121.38 157.949L122.217 154.246Z" fill="#FEF6E7"></path><path d="M91.5656 169.058V154.774C91.5656 154.663 89.4365 154.573 89.9291 153.192C97.8545 153.753 109.425 153.335 107.307 164.439C105.807 172.317 94.0341 171.211 88.0845 170.042C81.8394 168.82 84.899 167.614 82.9505 166.402C82.2006 165.937 75.337 164.762 75.1564 166.148C75.0688 166.831 78.8619 169.359 71.3086 167.201C74.412 166.328 78.227 153.266 79.048 152.732C85.0961 148.791 85.0304 170.978 91.5656 169.058ZM95.397 156.626V167.735C95.397 168.979 103.213 169.783 103.104 161.905C103.021 156.038 96.1468 154.758 95.397 156.626ZM82.8082 163.762L79.5351 156.366L76.7929 163.233L82.8137 163.762H82.8082Z" fill="#181B1C"></path><path d="M122.217 154.246L121.38 157.949C120.296 156.754 114.751 155.643 114.002 156.357C113.805 156.542 113.81 161.467 114.002 161.653C116.59 164.134 121.423 155.421 120.028 164.557L114.002 163.763V169.588C120.542 171.741 122.376 162.467 124.401 171.17H107.986C110.499 167.186 110.685 158.166 107.986 154.246H122.217Z" fill="#181B1C"></path><path d="M141.914 152.664C142.544 153.145 140.124 154.463 139.856 155.669C138.663 161.081 142.834 170.149 133.918 171.133C121.898 172.46 126.72 161.716 125.538 155.595C125.395 154.86 123.463 155.928 123.863 154.521L130.967 153.722C128.548 155.643 128.619 166.752 130.798 168.043C138.827 172.81 139.145 156.425 135.904 153.193L141.92 152.664H141.914Z" fill="#181B1C"></path><path d="M153.962 151.6C154.137 151.77 154.673 156.187 154.504 156.362C154.159 156.705 145.544 151.51 145.965 156.097C146.266 159.361 157.645 158.599 154.093 166.815C152.714 170.005 148.713 169.233 146.151 169.143C145.56 169.122 144.509 170.138 144.378 170.111C143.765 169.989 141.866 163.271 143.289 163.26C144.055 163.255 146.644 168.508 150.541 166.561C155.522 164.07 145.128 162.133 143.858 160.054C139.036 152.198 152.588 150.246 153.967 151.606L153.962 151.6Z" fill="#181B1C"></path><path d="M95.3965 156.626C96.1463 154.758 103.021 156.044 103.103 161.906C103.212 169.783 95.3965 168.974 95.3965 167.736V156.626Z" fill="#FEF6E7"></path><path d="M82.8078 163.763L76.7871 163.234L79.5293 156.367L82.8078 163.763Z" fill="#FEF6E7"></path></g><defs><clipPath id="clip0_2165_1318"><rect width="254.545" height="250" fill="white" transform="translate(0.345703)"></rect></clipPath></defs></svg>