<svg xmlns="http://www.w3.org/2000/svg" width="255" height="250" viewBox="0 0 255 250" fill="none"><g clip-path="url(#clip0_2165_1262)"><path d="M0.592931 106.387C4.44699 52.5362 59.133 4.11748 115.337 0.346771C249.102 -8.61988 304.956 156.708 199.409 228.042C121 281.029 10.0917 232.374 0.592931 143.42C0.498062 142.534 1.01391 141.215 0 140.615V109.753C1.04949 109.007 0.51585 107.442 0.592931 106.387ZM104.356 7.63007C89.1591 10.2336 74.3002 15.3454 61.6649 23.9025C56.0379 27.0952 51.1166 30.4002 46.2486 34.5637C45.4719 35.2314 44.707 36.0899 43.8769 36.8081C43.6694 36.9877 43.4915 37.1953 43.284 37.3693C42.6673 37.8799 41.8076 38.138 41.5052 39.0526C40.349 39.9223 40.0051 40.4891 39.1335 41.2971C38.5583 41.8301 37.9002 42.4249 37.3547 42.9804C31.9412 48.4962 27.2274 54.4833 23.1243 60.9362C14.2659 74.8519 8.26546 90.7595 5.92931 106.948C5.9056 107.133 5.95303 107.324 5.92931 107.509C5.82852 108.238 6.01232 109.024 5.92931 109.753C5.9056 109.955 5.43718 110.915 5.33638 111.998C4.69602 118.731 4.65451 125.437 4.74345 132.198C4.75531 133.247 4.3284 134.835 5.33638 135.565C5.34824 136.676 5.24151 137.832 5.33638 138.931C5.43125 140.031 5.89374 140.89 5.92931 141.176C6.82464 147.876 8.18245 154.328 10.0798 160.815C10.1451 161.034 10.4652 161.241 10.6728 161.376C11.3843 163.912 12.1373 166.202 13.0445 168.671C17.8354 181.75 26.9784 195.47 36.7617 205.704C36.9515 205.901 37.1649 206.069 37.3547 206.265C37.5444 206.462 37.7579 206.636 37.9476 206.827C63.0938 234.321 102.014 248.877 140.525 244.421C141.788 244.275 142.612 243.989 143.489 243.86C161.58 241.212 175.525 236.381 190.924 227.027C196.681 223.531 201.929 219.665 206.933 215.243C207.52 214.721 208.131 214.11 208.712 213.56C209.115 213.178 209.495 212.836 209.898 212.438C212.566 210.502 214.795 208.067 217.013 205.704C228.777 193.191 237.949 178.058 243.102 161.937C245.017 155.933 246.707 149.716 247.252 143.42C248.183 142.96 247.75 141.911 247.845 141.176C247.916 140.632 247.786 140.042 247.845 139.493C247.905 138.943 248.379 138.039 248.438 136.687C248.503 135.2 248.409 133.691 248.438 132.198V119.853C248.438 118.361 248.456 116.857 248.438 115.364C248.426 114.315 248.853 112.727 247.845 111.998C247.828 111.078 247.934 110.107 247.845 109.192C247.739 108.115 247.264 107.599 247.252 107.509C245.657 96.2529 242.545 85.3616 237.765 74.9641C236.781 72.8262 228.688 57.3506 227.674 57.0083C226.66 56.6661 225.622 59.4099 225.314 59.8139C209.5 72.2314 213.449 90.3331 208.119 107.509C202.788 124.685 188.457 137.439 179.184 152.791C175.941 158.161 171.096 171.145 168.304 174.478C166.78 176.302 164.924 177.323 162.463 177.648C161.912 177.721 161.254 177.648 160.684 177.648H158.906C157.832 177.031 156.119 175.252 154.773 175.645C154.269 175.791 149.016 181.812 147.646 182.985C132.965 195.526 116.962 206.984 100.205 216.927C86.2004 224.653 79.3046 209.587 70.5648 202.051C60.728 193.567 29.356 175.83 26.3854 165.304C22.6678 152.129 34.9889 153.823 36.6787 151.197C36.9159 150.827 37.0582 146.91 38.2856 144.582C39.6078 142.074 48.7508 134.325 48.6204 133.601C48.4899 132.877 38.6591 135.458 37.3487 125.762C35.7893 114.209 54.7394 100.899 62.8507 92.9254C63.2302 92.5495 63.6453 92.1904 64.0366 91.8032C64.2323 91.6124 64.4339 91.4329 64.6295 91.2421C64.8252 91.0513 65.0268 90.8717 65.2225 90.681C65.4181 90.4902 65.6197 90.3106 65.8154 90.1198C66.5803 89.3736 67.4044 88.6385 68.1871 87.8754C68.7563 87.3199 69.3789 86.7588 69.9659 86.192C70.9502 85.2437 71.9344 84.3235 72.9306 83.3864C79.7611 76.9673 85.9276 69.8411 93.0902 63.7474C106.485 52.3511 116.944 50.5611 132.817 44.1083C148.689 37.6554 151.458 35.3661 161.87 22.2247L170.764 13.2525C164.029 11.3952 157.518 9.52103 150.605 8.1968C133.19 4.86376 121.841 4.63931 104.356 7.63568V7.63007ZM78.2669 85.6253C74.401 89.093 70.7782 92.7515 67.0012 96.2865C61.5226 101.415 42.1515 116.88 42.0922 123.501C41.9914 135.127 56.6665 124.808 60.4849 121.823C66.6396 117.009 96.6537 85.8554 100.063 85.182C102.714 84.6602 103.176 87.0562 102.577 88.992C97.8989 93.5483 93.0843 97.9699 88.3468 102.459C87.9554 102.829 87.5522 103.211 87.1609 103.581C86.7696 103.951 86.3664 104.339 85.9751 104.703C85.1746 105.444 84.3919 106.218 83.6033 106.948C83.4017 107.133 83.212 107.324 83.0104 107.509C82.8088 107.694 82.6191 107.885 82.4175 108.07C82.0143 108.44 81.6289 108.827 81.2316 109.192C81.03 109.377 80.8403 109.568 80.6387 109.753L77.0811 113.12C71.0984 118.698 41.6712 143.729 41.4874 149.862C41.3807 153.515 43.6516 155.344 47.4464 154.979C53.7018 154.379 80.8936 127.299 87.1609 121.531C89.171 119.685 91.092 117.766 93.0902 115.92C93.4934 115.55 93.8788 115.162 94.2761 114.798L104.356 105.259C106.864 103.171 113.552 95.1811 114.436 101.892L111.773 105.826C109.319 108.446 106.36 110.651 103.763 113.114C103.182 113.67 102.571 114.253 101.984 114.798L93.6832 122.653C83.8879 131.682 73.5946 140.317 64.0366 149.587C63.2599 150.339 62.4535 151.063 61.6649 151.831C61.0838 152.398 60.479 152.92 59.8861 153.515C58.2021 155.193 56.0735 156.747 54.5497 158.565C50.9387 162.885 46.0233 171.6 56.4886 170.775C69.7821 169.731 112.343 123.86 125.494 114.848C128.387 113.423 129.668 115.651 129.259 118.159L122.737 124.331C110.819 134.594 76.4941 160.697 69.373 171.465C65.4063 173.373 63.8706 181.054 68.78 182.126C69.9244 182.379 73.6065 182.222 74.8694 181.997C82.2337 180.679 111.323 156.163 120.181 150.249C133.736 141.204 158.74 129.903 168.695 118.726C170.592 116.599 175.146 106.706 178.383 108.698C181.366 110.533 171.256 123.299 170.213 126.895C166.667 139.105 170.195 148.773 164.153 162.683C163.376 164.479 159.012 170.259 158.995 170.73C158.912 172.649 162.256 173.042 163.649 172.307C164.621 171.796 171.559 156.197 173.255 153.347C186.56 131.008 201.858 120.661 206.767 93.5988C209.068 80.9231 205.949 77.2983 214.155 65.2399C215.525 63.2255 224.644 53.5743 224.602 52.7831C224.573 52.2613 218.549 45.657 217.6 44.6526C216.877 43.8894 215.993 43.16 215.228 42.4081C215.032 42.2173 214.831 42.0321 214.635 41.847C212.175 38.9572 209.269 36.4378 206.334 33.9913C202.373 30.692 179.534 14.6665 175.478 15.7719C172.934 16.462 160.75 31.932 157.726 34.8498C141.301 50.6958 121.592 49.8036 103.579 61.6039C95.0943 67.1646 85.2873 78.2186 78.261 85.6197L78.2669 85.6253ZM163.056 129.954C150.112 137.4 136.119 145.446 123.739 153.627C107.765 164.176 93.7662 177.115 77.0811 186.626C72.2605 186.868 68.2583 188.388 63.9061 184.949C59.2635 181.279 61.8961 175.297 61.066 174.287C60.6865 173.822 55.0952 177.396 49.1955 173.457C41.0012 167.98 47.4701 160.17 46.8356 159.698C46.64 159.558 43.6753 159.912 42.2464 159.272C40.8174 158.632 39.1038 156.085 38.25 155.967C35.0304 155.524 30.4648 159.283 31.0755 163.082C32.4749 171.768 61.2854 188.31 69.0587 194.493C73.1203 197.725 88.0088 213.526 90.5525 214.003C97.9226 215.384 114.181 202.405 120.294 198.068C133.184 188.927 153.812 174.08 160.003 159.895C164.497 149.593 163.56 139.375 164.841 128.562C164.165 127.866 163.311 129.808 163.056 129.959V129.954Z" fill="#181B1C"></path><path d="M10.673 161.378C10.4654 161.243 10.1453 161.035 10.0801 160.816H10.673C10.7204 160.99 10.6255 161.204 10.673 161.378Z" fill="#FDA9DA"></path><path d="M150.605 8.19227L168.974 14.084C166.223 16.5192 164.118 19.3922 161.871 22.2202C151.459 35.3615 148.738 37.6341 132.817 44.1037C119.619 46.7859 105.531 52.7169 95.19 60.9597C94.7986 61.2739 92.1542 63.1144 93.091 63.7428C85.9284 69.8366 79.7619 76.9627 72.9313 83.3819L69.9667 86.1875C69.3797 86.7542 68.7571 87.3154 68.1879 87.8709L65.8162 90.1153C65.6205 90.3061 65.4189 90.4857 65.2232 90.6764L64.6303 91.2376C64.4346 91.4283 64.233 91.6079 64.0374 91.7987L62.8515 92.9209C54.7343 100.894 35.7901 114.21 37.3495 125.757C38.6599 135.454 48.4907 132.872 48.6211 133.596C48.7516 134.32 39.6086 142.069 38.2863 144.577C37.059 146.906 36.9167 150.823 36.6795 151.193C34.9956 153.819 22.6745 152.13 26.3862 165.299C29.3568 175.826 60.7288 193.563 70.5655 202.047C79.3053 209.583 86.2011 224.649 100.206 216.922L100.805 217.455L98.1013 219.155C123.408 214.38 146.407 196.06 162.458 177.644C164.919 177.318 166.775 176.297 168.298 174.474C171.091 171.141 175.929 158.156 179.179 152.786C188.452 137.44 202.771 124.719 208.114 107.504C209.94 107.386 210.503 103.167 210.8 101.91C215.798 80.5988 210.723 78.893 225.309 59.8094C225.617 59.411 226.631 56.6559 227.669 57.0038C228.706 57.3517 236.776 72.8217 237.76 74.9596C242.178 88.7967 247.022 102.679 247.864 117.301C248.32 125.236 247.063 133.282 247.84 141.171C247.745 141.906 248.178 142.956 247.247 143.416L246.66 141.738L243.097 161.933C237.944 178.054 228.771 193.187 217.008 205.7C214.185 207.299 212.14 210.206 209.893 212.433C209.489 212.832 209.11 213.174 208.707 213.555L206.928 215.239C201.924 219.66 196.676 223.526 190.919 227.022L164.8 238.497L141.113 243.856C140.917 243.856 140.715 243.856 140.52 243.856C97.2534 243.985 68.4547 237.459 37.9424 206.822C37.7527 206.631 37.5393 206.457 37.3495 206.261V205.139L36.7566 205.7C26.9732 195.465 17.8302 181.746 13.0393 168.666L10.6676 160.81C8.5627 153.084 6.69497 144.347 5.93601 136.391C5.01104 126.65 6.11982 117.189 5.92415 107.504C5.94787 107.319 5.90044 107.128 5.92415 106.943L13.3536 81.7098L23.1192 60.9316C27.2223 54.4788 31.9361 48.4917 37.3495 42.9759L39.1283 41.2925C39.9999 40.4845 40.3438 39.9178 41.5 39.0481C41.8439 38.79 43.2077 39.1154 43.2788 37.3647C43.4864 37.1908 43.6642 36.9832 43.8718 36.8036L46.2435 34.5591C51.1115 30.3957 56.0328 27.0907 61.6597 23.8979C68.4013 20.0767 75.6707 16.8952 82.9104 13.9886L104.351 7.62554C121.836 4.62918 133.185 4.85362 150.599 8.18666L150.605 8.19227Z" fill="#FDA9DA"></path><path d="M206.339 34.0047C208.319 37.1919 211.93 39.2736 214.64 41.8604C214.835 42.0455 215.037 42.2307 215.233 42.4215L217.604 44.6659C218.553 45.6647 224.577 52.2691 224.607 52.7965C224.648 53.5933 215.529 63.2445 214.159 65.2533C205.953 77.3117 209.066 80.9309 206.772 93.6122C201.862 120.675 186.564 131.022 173.259 153.36C171.563 156.21 164.626 171.809 163.654 172.32C162.254 173.055 158.916 172.662 158.999 170.743C159.017 170.272 163.381 164.492 164.158 162.697C170.199 148.787 166.672 139.119 170.217 126.909C171.261 123.312 181.37 110.552 178.388 108.712C175.15 106.714 170.591 116.607 168.699 118.739C158.744 129.916 133.74 141.217 120.186 150.263C111.327 156.177 82.2322 180.692 74.8739 182.011C73.611 182.235 69.9289 182.392 68.7845 182.14C64.4739 177.864 66.6559 175.597 69.3774 171.478C76.4986 160.711 110.823 134.607 122.741 124.345C124.538 122.796 128.86 120.647 129.264 118.172C129.667 115.698 128.392 113.431 125.498 114.862C112.347 123.873 69.7866 169.744 56.493 170.788C46.0337 171.607 50.9432 162.893 54.5542 158.578L59.8905 153.528C60.4835 152.933 61.0883 152.412 61.6693 151.845L64.0411 149.6C73.5991 140.331 83.8924 131.695 93.6876 122.667C96.4981 120.074 99.2019 117.404 101.989 114.811C102.576 114.267 103.186 113.683 103.767 113.128L113.563 104.722L115.525 101.518L114.44 101.905C113.557 95.1945 106.868 103.185 104.36 105.272C100.738 108.291 97.7018 111.658 94.2806 114.811C93.8833 115.176 93.4979 115.563 93.0947 115.933L87.1654 121.545C80.8981 127.307 53.7063 154.392 47.4508 154.993C43.6561 155.357 41.3852 153.528 41.4919 149.875C41.6757 143.737 71.1029 118.711 77.0856 113.133C78.2773 112.022 79.4573 110.861 80.6431 109.767C80.8447 109.582 81.0345 109.391 81.2361 109.206C82.4931 109.346 82.5702 109.273 82.4219 108.083C82.6235 107.898 82.8133 107.707 83.0149 107.522L83.6078 106.961C84.3964 106.232 85.1791 105.457 85.9795 104.717L87.1654 103.594C87.5567 103.224 87.9599 102.843 88.3512 102.472C91.2803 100.413 101.787 91.5921 102.582 89.0054C103.175 87.0695 102.718 84.6736 100.068 85.1954C96.6641 85.8688 66.644 117.022 60.4894 121.836C56.6769 124.821 42.0018 135.14 42.0967 123.514C42.15 116.893 61.527 101.429 67.0057 96.2999C71.7432 93.7861 74.7494 89.3477 78.2714 85.6387C85.3036 78.2376 95.1047 67.1836 103.59 61.6229C121.609 49.8226 141.318 50.7148 157.736 34.8688C160.76 31.951 172.945 16.481 175.488 15.7909C179.544 14.6855 202.384 30.711 206.345 34.0103L206.339 34.0047Z" fill="#F6B885"></path><path d="M163.056 129.953C163.316 129.802 164.164 127.861 164.84 128.556C163.56 139.375 164.496 149.593 160.002 159.889C153.812 174.074 133.184 188.921 120.293 198.062C114.18 202.399 97.9221 215.378 90.5519 213.998C88.0083 213.521 73.1198 197.72 69.0582 194.488C61.2908 188.304 32.4743 171.762 31.075 163.076C30.4643 159.277 35.0298 155.518 38.2495 155.961C39.1033 156.079 40.8524 158.638 42.2458 159.266C43.6392 159.895 46.6394 159.552 46.8351 159.693C47.4695 160.158 41.0007 167.975 49.195 173.451C55.0887 177.39 60.686 173.816 61.0655 174.282C61.8956 175.297 59.263 181.273 63.9056 184.943C68.2518 188.383 72.26 186.862 77.0805 186.621C77.3652 186.604 78.3494 187.288 79.6361 187.137C92.9059 185.549 141.615 151.73 153.575 142.017C156.747 139.442 165.38 134.179 163.056 129.948V129.953Z" fill="#FEF6E7"></path><path d="M163.055 129.955C165.379 134.186 156.746 139.455 153.574 142.025C141.609 151.738 92.8995 185.556 79.6356 187.144C78.349 187.296 77.3706 186.611 77.0801 186.628C93.7652 177.117 107.764 164.172 123.738 153.629C136.124 145.448 150.111 137.401 163.055 129.955Z" fill="#FDA9DA"></path><path d="M158.907 177.649C159.547 178.019 160.199 178.979 160.685 177.649C161.255 177.649 161.913 177.722 162.464 177.649C146.414 196.059 123.408 214.385 98.1074 219.16L100.811 217.46L100.212 216.927C116.969 206.984 132.972 195.526 147.653 182.985C149.022 181.813 154.282 175.797 154.78 175.646C156.12 175.253 157.833 177.032 158.913 177.649H158.907Z" fill="#FDA9DA"></path><path d="M37.9473 206.828C68.4595 237.465 97.2582 243.991 140.524 243.862V244.423C102.014 248.878 63.0935 234.323 37.9473 206.828Z" fill="#FDA9DA"></path><path d="M13.0434 168.672C12.1363 166.203 11.3833 163.914 10.6719 161.378C10.6245 161.204 10.7193 160.99 10.6719 160.816L13.0434 168.672Z" fill="#FEF6E7"></path><path d="M10.6728 160.816H10.0799C8.1827 154.329 6.82501 147.877 5.92976 141.177L5.33688 138.932C5.24202 137.833 5.34874 136.677 5.33688 135.566C5.32502 134.516 5.74597 132.928 4.744 132.199C4.65507 125.437 4.69657 118.732 5.33688 111.999L5.92976 109.754C6.01276 109.025 5.82897 108.239 5.92976 107.51C6.12541 117.195 5.01673 126.655 5.94162 136.396C6.69457 144.358 8.56214 153.089 10.6728 160.816Z" fill="#FDA9DA"></path><path d="M225.314 59.8164C210.728 78.9 215.804 80.6058 210.805 101.917C210.509 103.174 209.945 107.394 208.119 107.511C213.45 90.3356 209.501 72.2339 225.314 59.8164Z" fill="#FDA9DA"></path><path d="M23.1247 60.9375L13.3591 81.7157L5.92969 106.949C8.26584 90.7609 14.2663 74.8532 23.1247 60.9375Z" fill="#FDA9DA"></path><path d="M247.253 107.51L247.845 109.193C247.934 110.108 247.828 111.078 247.845 111.999C247.863 113.053 247.43 114.63 248.438 115.365C248.456 116.858 248.438 118.362 248.438 119.854C248.45 123.956 248.521 128.097 248.438 132.199C248.409 133.691 248.504 135.201 248.438 136.688L247.845 139.493C247.786 140.043 247.917 140.632 247.845 141.177C247.069 133.287 248.32 125.247 247.869 117.307C247.033 102.678 242.183 88.802 237.766 74.9648C242.545 85.3623 245.658 96.2536 247.253 107.51Z" fill="#FDA9DA"></path><path d="M104.355 7.63086L82.9147 13.9939C75.675 16.9005 68.4057 20.082 61.6641 23.9032C74.2994 15.3462 89.1583 10.2344 104.355 7.63086Z" fill="#FDA9DA"></path><path d="M132.815 44.1035C116.942 50.5564 106.482 52.3463 93.0882 63.7426C92.1454 63.1142 94.7958 61.2681 95.1872 60.9595C105.534 52.7167 119.616 46.7857 132.815 44.1035Z" fill="#FDA9DA"></path><path d="M190.923 227.027C175.525 236.381 161.579 241.212 143.489 243.861C142.7 243.861 141.906 243.861 141.117 243.861L164.805 238.502L190.923 227.027Z" fill="#FDA9DA"></path><path d="M150.604 8.19141C157.511 9.51564 164.027 11.3898 170.763 13.2471L161.869 22.2193C164.11 19.3913 166.221 16.5184 168.973 14.0831L150.604 8.19141Z" fill="#FDA9DA"></path><path d="M247.25 143.422C246.704 149.718 245.015 155.935 243.1 161.939L246.663 141.744L247.25 143.422Z" fill="#FDA9DA"></path><path d="M248.438 132.198C248.521 128.096 248.449 123.955 248.438 119.854V132.198Z" fill="#F6B885"></path><path d="M69.3709 171.479C66.6496 175.597 64.4678 177.864 68.7781 182.14C63.869 181.068 65.4046 173.386 69.3709 171.479Z" fill="#FDA9DA"></path><path d="M93.0889 115.928C91.0909 117.774 89.17 119.693 87.1602 121.539L93.0889 115.928Z" fill="#FDA9DA"></path><path d="M102.576 88.9941C101.782 91.5809 91.2748 100.402 88.3457 102.461C93.0832 97.972 97.8978 93.5504 102.576 88.9941Z" fill="#FDA9DA"></path><path d="M248.438 115.367C247.43 114.632 247.863 113.055 247.845 112C248.853 112.729 248.426 114.317 248.438 115.367Z" fill="#FDA9DA"></path><path d="M5.33481 135.566C4.32692 134.836 4.75379 133.249 4.74193 132.199C5.7439 132.929 5.32295 134.517 5.33481 135.566Z" fill="#FDA9DA"></path><path d="M103.762 113.121C106.359 110.652 109.312 108.453 111.772 105.832L114.434 101.899L115.52 101.512L113.557 104.716L103.762 113.121Z" fill="#FDA9DA"></path><path d="M67 96.2882C70.777 92.7531 74.3998 89.0947 78.2657 85.627C74.7437 89.3359 71.7375 93.7744 67 96.2882Z" fill="#FDA9DA"></path><path d="M59.8847 153.521L54.5488 158.572C56.0725 156.754 58.201 155.199 59.8847 153.521Z" fill="#FDA9DA"></path><path d="M247.844 139.493L248.437 136.688C248.377 138.04 247.903 138.938 247.844 139.493Z" fill="#F6B885"></path><path d="M129.258 118.17C128.855 120.644 124.533 122.794 122.736 124.342L129.258 118.17Z" fill="#FDA9DA"></path><path d="M143.488 243.861C142.61 243.99 141.786 244.277 140.523 244.422V243.861C140.719 243.861 140.921 243.861 141.116 243.861C141.905 243.861 142.699 243.861 143.488 243.861Z" fill="#F6B885"></path><path d="M5.92882 141.178C5.89324 140.892 5.43673 140.078 5.33594 138.934L5.92882 141.178Z" fill="#F6B885"></path><path d="M5.33594 111.998C5.43673 110.915 5.9051 109.956 5.92882 109.754L5.33594 111.998Z" fill="#F6B885"></path><path d="M214.641 41.8595C211.931 39.2728 208.32 37.191 206.34 34.0039C209.275 36.4504 212.18 38.9698 214.641 41.8595Z" fill="#FDA9DA"></path><path d="M64.0356 149.594L61.6641 151.838C62.4526 151.069 63.2589 150.346 64.0356 149.594Z" fill="#FDA9DA"></path><path d="M68.186 87.8711C67.4034 88.6342 66.5793 89.3693 65.8145 90.1156L68.186 87.8711Z" fill="#FEF6E7"></path><path d="M37.3535 42.9822C37.899 42.4267 38.5571 41.8319 39.1322 41.2988L37.3535 42.9822Z" fill="#FEF6E7"></path><path d="M160.685 177.65C160.199 178.98 159.547 178.021 158.906 177.65H160.685Z" fill="#FDA9DA"></path><path d="M43.2825 37.3711C43.2114 39.1218 41.8478 38.7963 41.5039 39.0544C41.8063 38.1398 42.6659 37.8817 43.2825 37.3711Z" fill="#FEF6E7"></path><path d="M217.604 44.6644L215.232 42.4199C215.997 43.1718 216.881 43.9013 217.604 44.6644Z" fill="#FDA9DA"></path><path d="M247.845 109.193L247.252 107.51C247.264 107.6 247.738 108.116 247.845 109.193Z" fill="#F6B885"></path><path d="M72.9292 83.3809C71.9332 84.3179 70.949 85.2382 69.9648 86.1864L72.9292 83.3809Z" fill="#FEF6E7"></path><path d="M87.1604 103.582L85.9746 104.704C86.3659 104.34 86.7631 103.952 87.1604 103.582Z" fill="#FDA9DA"></path><path d="M82.4162 108.07C82.5644 109.26 82.4874 109.333 81.2305 109.193C81.6277 108.828 82.0131 108.441 82.4162 108.07Z" fill="#FDA9DA"></path><path d="M37.3526 206.267C37.1629 206.07 36.9495 205.902 36.7598 205.706L37.3467 205.145V206.267H37.3526Z" fill="#FEF6E7"></path><path d="M217.012 205.705C214.794 208.067 212.565 210.503 209.896 212.438C212.144 210.211 214.189 207.304 217.012 205.705Z" fill="#FEF6E7"></path><path d="M208.71 213.561C208.129 214.11 207.519 214.722 206.932 215.244L208.71 213.561Z" fill="#FEF6E7"></path><path d="M43.877 36.8089C44.707 36.0907 45.4718 35.2322 46.2485 34.5645L43.877 36.8089Z" fill="#FEF6E7"></path><path d="M94.2754 114.805C97.6966 111.651 100.732 108.284 104.355 105.266L94.2754 114.805Z" fill="#FDA9DA"></path><path d="M62.8496 92.9211L64.0354 91.7988C63.6441 92.186 63.2291 92.5451 62.8496 92.9211Z" fill="#FEF6E7"></path><path d="M83.0098 107.51C83.2113 107.325 83.4011 107.134 83.6026 106.949L83.0098 107.51Z" fill="#FDA9DA"></path><path d="M64.6289 91.2369L65.2218 90.6758C65.0261 90.8666 64.8246 91.0461 64.6289 91.2369Z" fill="#FEF6E7"></path><path d="M77.0801 113.121L80.6373 109.754C79.4516 110.848 78.2718 112.01 77.0801 113.121Z" fill="#FDA9DA"></path><path d="M93.6816 122.66L101.983 114.805C99.1959 117.397 96.4921 120.068 93.6816 122.66Z" fill="#FDA9DA"></path></g><defs><clipPath id="clip0_2165_1262"><rect width="254.545" height="250" fill="white"></rect></clipPath></defs></svg>